<svg width="1116" height="37" viewBox="0 0 1116 37" fill="none" xmlns="http://www.w3.org/2000/svg">
<g clip-path="url(#clip0_2731_30627)">
<g clip-path="url(#clip1_2731_30627)">
<path d="M48.4182 20.096C48.2262 20.096 48.0702 20.052 47.9502 19.964C47.8382 19.876 47.7702 19.76 47.7462 19.616C47.7222 19.464 47.7502 19.296 47.8302 19.112L50.9982 12.092C51.1022 11.86 51.2262 11.696 51.3702 11.6C51.5222 11.496 51.6942 11.444 51.8862 11.444C52.0702 11.444 52.2342 11.496 52.3782 11.6C52.5302 11.696 52.6582 11.86 52.7622 12.092L55.9422 19.112C56.0302 19.296 56.0622 19.464 56.0382 19.616C56.0142 19.768 55.9462 19.888 55.8342 19.976C55.7222 20.056 55.5742 20.096 55.3902 20.096C55.1662 20.096 54.9902 20.044 54.8622 19.94C54.7422 19.828 54.6342 19.66 54.5382 19.436L53.7582 17.624L54.4062 18.044H49.3422L49.9902 17.624L49.2222 19.436C49.1182 19.668 49.0102 19.836 48.8982 19.94C48.7862 20.044 48.6262 20.096 48.4182 20.096ZM51.8622 13.208L50.1822 17.204L49.8702 16.82H53.8782L53.5782 17.204L51.8862 13.208H51.8622ZM57.8638 22.256C57.6238 22.256 57.4398 22.192 57.3118 22.064C57.1838 21.936 57.1198 21.748 57.1198 21.5V14.792C57.1198 14.544 57.1838 14.356 57.3118 14.228C57.4398 14.1 57.6198 14.036 57.8518 14.036C58.0918 14.036 58.2758 14.1 58.4038 14.228C58.5318 14.356 58.5958 14.544 58.5958 14.792V15.728L58.4638 15.368C58.5838 14.96 58.8278 14.632 59.1958 14.384C59.5718 14.136 60.0078 14.012 60.5038 14.012C61.0158 14.012 61.4638 14.136 61.8478 14.384C62.2398 14.632 62.5438 14.984 62.7598 15.44C62.9758 15.888 63.0838 16.428 63.0838 17.06C63.0838 17.684 62.9758 18.228 62.7598 18.692C62.5438 19.148 62.2438 19.5 61.8598 19.748C61.4758 19.996 61.0238 20.12 60.5038 20.12C60.0158 20.12 59.5878 20 59.2198 19.76C58.8518 19.512 58.6038 19.192 58.4758 18.8H58.6198V21.5C58.6198 21.748 58.5518 21.936 58.4158 22.064C58.2878 22.192 58.1038 22.256 57.8638 22.256ZM60.0838 18.98C60.3798 18.98 60.6398 18.908 60.8638 18.764C61.0878 18.62 61.2598 18.408 61.3798 18.128C61.5078 17.84 61.5718 17.484 61.5718 17.06C61.5718 16.42 61.4358 15.944 61.1638 15.632C60.8918 15.312 60.5318 15.152 60.0838 15.152C59.7878 15.152 59.5278 15.224 59.3038 15.368C59.0798 15.504 58.9038 15.716 58.7758 16.004C58.6558 16.284 58.5958 16.636 58.5958 17.06C58.5958 17.692 58.7318 18.172 59.0038 18.5C59.2758 18.82 59.6358 18.98 60.0838 18.98ZM65.0592 22.256C64.8192 22.256 64.6352 22.192 64.5072 22.064C64.3792 21.936 64.3152 21.748 64.3152 21.5V14.792C64.3152 14.544 64.3792 14.356 64.5072 14.228C64.6352 14.1 64.8152 14.036 65.0472 14.036C65.2872 14.036 65.4712 14.1 65.5992 14.228C65.7272 14.356 65.7912 14.544 65.7912 14.792V15.728L65.6592 15.368C65.7792 14.96 66.0232 14.632 66.3912 14.384C66.7672 14.136 67.2032 14.012 67.6992 14.012C68.2112 14.012 68.6592 14.136 69.0432 14.384C69.4352 14.632 69.7392 14.984 69.9552 15.44C70.1712 15.888 70.2792 16.428 70.2792 17.06C70.2792 17.684 70.1712 18.228 69.9552 18.692C69.7392 19.148 69.4392 19.5 69.0552 19.748C68.6712 19.996 68.2192 20.12 67.6992 20.12C67.2112 20.12 66.7832 20 66.4152 19.76C66.0472 19.512 65.7992 19.192 65.6712 18.8H65.8152V21.5C65.8152 21.748 65.7472 21.936 65.6112 22.064C65.4832 22.192 65.2992 22.256 65.0592 22.256ZM67.2792 18.98C67.5752 18.98 67.8352 18.908 68.0592 18.764C68.2832 18.62 68.4552 18.408 68.5752 18.128C68.7032 17.84 68.7672 17.484 68.7672 17.06C68.7672 16.42 68.6312 15.944 68.3592 15.632C68.0872 15.312 67.7272 15.152 67.2792 15.152C66.9832 15.152 66.7232 15.224 66.4992 15.368C66.2752 15.504 66.0992 15.716 65.9712 16.004C65.8512 16.284 65.7912 16.636 65.7912 17.06C65.7912 17.692 65.9272 18.172 66.1992 18.5C66.4712 18.82 66.8312 18.98 67.2792 18.98ZM73.6585 20.12C73.3145 20.12 72.9505 20.084 72.5665 20.012C72.1825 19.94 71.8385 19.816 71.5345 19.64C71.4065 19.56 71.3145 19.468 71.2585 19.364C71.2105 19.252 71.1905 19.144 71.1985 19.04C71.2145 18.928 71.2545 18.832 71.3185 18.752C71.3905 18.672 71.4785 18.62 71.5825 18.596C71.6945 18.572 71.8145 18.592 71.9425 18.656C72.2625 18.808 72.5625 18.916 72.8425 18.98C73.1225 19.036 73.3985 19.064 73.6705 19.064C74.0545 19.064 74.3385 19 74.5225 18.872C74.7145 18.736 74.8105 18.56 74.8105 18.344C74.8105 18.16 74.7465 18.02 74.6185 17.924C74.4985 17.82 74.3145 17.744 74.0665 17.696L72.8665 17.468C72.3705 17.372 71.9905 17.192 71.7265 16.928C71.4705 16.656 71.3425 16.308 71.3425 15.884C71.3425 15.5 71.4465 15.168 71.6545 14.888C71.8705 14.608 72.1665 14.392 72.5425 14.24C72.9185 14.088 73.3505 14.012 73.8385 14.012C74.1905 14.012 74.5185 14.052 74.8225 14.132C75.1345 14.204 75.4345 14.32 75.7225 14.48C75.8425 14.544 75.9225 14.628 75.9625 14.732C76.0105 14.836 76.0225 14.944 75.9985 15.056C75.9745 15.16 75.9265 15.256 75.8545 15.344C75.7825 15.424 75.6905 15.476 75.5785 15.5C75.4745 15.516 75.3545 15.492 75.2185 15.428C74.9705 15.3 74.7305 15.208 74.4985 15.152C74.2745 15.096 74.0585 15.068 73.8505 15.068C73.4585 15.068 73.1665 15.136 72.9745 15.272C72.7905 15.408 72.6985 15.588 72.6985 15.812C72.6985 15.98 72.7545 16.12 72.8665 16.232C72.9785 16.344 73.1505 16.42 73.3825 16.46L74.5825 16.688C75.1025 16.784 75.4945 16.96 75.7585 17.216C76.0305 17.472 76.1665 17.816 76.1665 18.248C76.1665 18.832 75.9385 19.292 75.4825 19.628C75.0265 19.956 74.4185 20.12 73.6585 20.12Z" fill="#494369"/>
<rect x="2" y="32" width="120" height="5" rx="2.5" fill="#0C5BC6"/>
</g>
<g clip-path="url(#clip2_2731_30627)">
<path d="M144 5.5C144 3.84315 145.343 2.5 147 2.5H261C262.657 2.5 264 3.84315 264 5.5V31.5C264 33.1569 262.657 34.5 261 34.5H147C145.343 34.5 144 33.1569 144 31.5V5.5Z" fill="white"/>
<path d="M170.666 22.596C170.474 22.596 170.318 22.552 170.198 22.464C170.086 22.376 170.018 22.26 169.994 22.116C169.97 21.964 169.998 21.796 170.078 21.612L173.246 14.592C173.35 14.36 173.474 14.196 173.618 14.1C173.77 13.996 173.942 13.944 174.134 13.944C174.318 13.944 174.482 13.996 174.626 14.1C174.778 14.196 174.906 14.36 175.01 14.592L178.19 21.612C178.278 21.796 178.31 21.964 178.286 22.116C178.262 22.268 178.194 22.388 178.082 22.476C177.97 22.556 177.822 22.596 177.638 22.596C177.414 22.596 177.238 22.544 177.11 22.44C176.99 22.328 176.882 22.16 176.786 21.936L176.006 20.124L176.654 20.544H171.59L172.238 20.124L171.47 21.936C171.366 22.168 171.258 22.336 171.146 22.44C171.034 22.544 170.874 22.596 170.666 22.596ZM174.11 15.708L172.43 19.704L172.118 19.32H176.126L175.826 19.704L174.134 15.708H174.11ZM180.112 24.756C179.872 24.756 179.688 24.692 179.56 24.564C179.432 24.436 179.368 24.248 179.368 24V17.292C179.368 17.044 179.432 16.856 179.56 16.728C179.688 16.6 179.868 16.536 180.1 16.536C180.34 16.536 180.524 16.6 180.652 16.728C180.78 16.856 180.844 17.044 180.844 17.292V18.228L180.712 17.868C180.832 17.46 181.076 17.132 181.444 16.884C181.82 16.636 182.256 16.512 182.752 16.512C183.264 16.512 183.712 16.636 184.096 16.884C184.488 17.132 184.792 17.484 185.008 17.94C185.224 18.388 185.332 18.928 185.332 19.56C185.332 20.184 185.224 20.728 185.008 21.192C184.792 21.648 184.492 22 184.108 22.248C183.724 22.496 183.272 22.62 182.752 22.62C182.264 22.62 181.836 22.5 181.468 22.26C181.1 22.012 180.852 21.692 180.724 21.3H180.868V24C180.868 24.248 180.8 24.436 180.664 24.564C180.536 24.692 180.352 24.756 180.112 24.756ZM182.332 21.48C182.628 21.48 182.888 21.408 183.112 21.264C183.336 21.12 183.508 20.908 183.628 20.628C183.756 20.34 183.82 19.984 183.82 19.56C183.82 18.92 183.684 18.444 183.412 18.132C183.14 17.812 182.78 17.652 182.332 17.652C182.036 17.652 181.776 17.724 181.552 17.868C181.328 18.004 181.152 18.216 181.024 18.504C180.904 18.784 180.844 19.136 180.844 19.56C180.844 20.192 180.98 20.672 181.252 21C181.524 21.32 181.884 21.48 182.332 21.48ZM187.307 24.756C187.067 24.756 186.883 24.692 186.755 24.564C186.627 24.436 186.563 24.248 186.563 24V17.292C186.563 17.044 186.627 16.856 186.755 16.728C186.883 16.6 187.063 16.536 187.295 16.536C187.535 16.536 187.719 16.6 187.847 16.728C187.975 16.856 188.039 17.044 188.039 17.292V18.228L187.907 17.868C188.027 17.46 188.271 17.132 188.639 16.884C189.015 16.636 189.451 16.512 189.947 16.512C190.459 16.512 190.907 16.636 191.291 16.884C191.683 17.132 191.987 17.484 192.203 17.94C192.419 18.388 192.527 18.928 192.527 19.56C192.527 20.184 192.419 20.728 192.203 21.192C191.987 21.648 191.687 22 191.303 22.248C190.919 22.496 190.467 22.62 189.947 22.62C189.459 22.62 189.031 22.5 188.663 22.26C188.295 22.012 188.047 21.692 187.919 21.3H188.063V24C188.063 24.248 187.995 24.436 187.859 24.564C187.731 24.692 187.547 24.756 187.307 24.756ZM189.527 21.48C189.823 21.48 190.083 21.408 190.307 21.264C190.531 21.12 190.703 20.908 190.823 20.628C190.951 20.34 191.015 19.984 191.015 19.56C191.015 18.92 190.879 18.444 190.607 18.132C190.335 17.812 189.975 17.652 189.527 17.652C189.231 17.652 188.971 17.724 188.747 17.868C188.523 18.004 188.347 18.216 188.219 18.504C188.099 18.784 188.039 19.136 188.039 19.56C188.039 20.192 188.175 20.672 188.447 21C188.719 21.32 189.079 21.48 189.527 21.48ZM201.096 22.62C200.216 22.62 199.46 22.444 198.828 22.092C198.204 21.732 197.724 21.228 197.388 20.58C197.052 19.924 196.884 19.152 196.884 18.264C196.884 17.6 196.98 17.004 197.172 16.476C197.364 15.94 197.64 15.484 198 15.108C198.36 14.724 198.8 14.432 199.32 14.232C199.848 14.024 200.44 13.92 201.096 13.92C201.536 13.92 201.968 13.976 202.392 14.088C202.816 14.2 203.188 14.36 203.508 14.568C203.676 14.672 203.788 14.8 203.844 14.952C203.9 15.096 203.912 15.24 203.88 15.384C203.848 15.52 203.78 15.636 203.676 15.732C203.58 15.828 203.456 15.884 203.304 15.9C203.16 15.908 203 15.856 202.824 15.744C202.576 15.584 202.308 15.468 202.02 15.396C201.732 15.324 201.44 15.288 201.144 15.288C200.576 15.288 200.096 15.404 199.704 15.636C199.312 15.868 199.016 16.204 198.816 16.644C198.616 17.084 198.516 17.624 198.516 18.264C198.516 18.896 198.616 19.436 198.816 19.884C199.016 20.332 199.312 20.672 199.704 20.904C200.096 21.136 200.576 21.252 201.144 21.252C201.448 21.252 201.748 21.216 202.044 21.144C202.34 21.064 202.62 20.944 202.884 20.784C203.06 20.68 203.216 20.636 203.352 20.652C203.496 20.66 203.616 20.708 203.712 20.796C203.808 20.884 203.872 20.996 203.904 21.132C203.936 21.26 203.928 21.396 203.88 21.54C203.832 21.676 203.736 21.796 203.592 21.9C203.272 22.132 202.888 22.312 202.44 22.44C202 22.56 201.552 22.62 201.096 22.62ZM207.427 22.62C206.819 22.62 206.291 22.496 205.843 22.248C205.395 22 205.047 21.648 204.799 21.192C204.551 20.728 204.427 20.184 204.427 19.56C204.427 19.088 204.495 18.668 204.631 18.3C204.775 17.924 204.979 17.604 205.243 17.34C205.507 17.068 205.823 16.864 206.191 16.728C206.559 16.584 206.971 16.512 207.427 16.512C208.035 16.512 208.563 16.636 209.011 16.884C209.459 17.132 209.807 17.484 210.055 17.94C210.303 18.396 210.427 18.936 210.427 19.56C210.427 20.032 210.355 20.456 210.211 20.832C210.075 21.208 209.875 21.532 209.611 21.804C209.347 22.068 209.031 22.272 208.663 22.416C208.295 22.552 207.883 22.62 207.427 22.62ZM207.427 21.48C207.723 21.48 207.983 21.408 208.207 21.264C208.431 21.12 208.603 20.908 208.723 20.628C208.851 20.34 208.915 19.984 208.915 19.56C208.915 18.92 208.779 18.444 208.507 18.132C208.235 17.812 207.875 17.652 207.427 17.652C207.131 17.652 206.871 17.724 206.647 17.868C206.423 18.004 206.247 18.216 206.119 18.504C205.999 18.784 205.939 19.136 205.939 19.56C205.939 20.192 206.075 20.672 206.347 21C206.619 21.32 206.979 21.48 207.427 21.48ZM212.409 22.596C212.169 22.596 211.985 22.532 211.857 22.404C211.729 22.268 211.665 22.076 211.665 21.828V17.292C211.665 17.044 211.729 16.856 211.857 16.728C211.985 16.6 212.165 16.536 212.397 16.536C212.629 16.536 212.809 16.6 212.937 16.728C213.065 16.856 213.129 17.044 213.129 17.292V18.108L212.997 17.808C213.173 17.384 213.445 17.064 213.813 16.848C214.189 16.624 214.613 16.512 215.085 16.512C215.557 16.512 215.945 16.6 216.249 16.776C216.553 16.952 216.781 17.22 216.933 17.58C217.085 17.932 217.161 18.38 217.161 18.924V21.828C217.161 22.076 217.097 22.268 216.969 22.404C216.841 22.532 216.657 22.596 216.417 22.596C216.177 22.596 215.989 22.532 215.853 22.404C215.725 22.268 215.661 22.076 215.661 21.828V18.996C215.661 18.54 215.573 18.208 215.397 18C215.229 17.792 214.965 17.688 214.605 17.688C214.165 17.688 213.813 17.828 213.549 18.108C213.293 18.38 213.165 18.744 213.165 19.2V21.828C213.165 22.34 212.913 22.596 212.409 22.596ZM219.836 22.596C219.596 22.596 219.408 22.532 219.272 22.404C219.144 22.268 219.08 22.076 219.08 21.828V17.76H218.528C218.336 17.76 218.188 17.712 218.084 17.616C217.98 17.512 217.928 17.372 217.928 17.196C217.928 17.012 217.98 16.872 218.084 16.776C218.188 16.68 218.336 16.632 218.528 16.632H219.512L219.08 17.028V16.62C219.08 15.812 219.284 15.2 219.692 14.784C220.1 14.368 220.692 14.12 221.468 14.04L221.828 14.004C222.012 13.988 222.156 14.012 222.26 14.076C222.372 14.14 222.444 14.228 222.476 14.34C222.516 14.444 222.524 14.556 222.5 14.676C222.476 14.788 222.428 14.888 222.356 14.976C222.284 15.056 222.192 15.1 222.08 15.108L221.792 15.132C221.368 15.164 221.06 15.28 220.868 15.48C220.676 15.68 220.58 15.98 220.58 16.38V16.824L220.388 16.632H223.712C223.952 16.632 224.136 16.704 224.264 16.848C224.392 16.984 224.456 17.18 224.456 17.436V21.768C224.456 22.024 224.392 22.224 224.264 22.368C224.144 22.512 223.96 22.584 223.712 22.584C223.472 22.584 223.284 22.512 223.148 22.368C223.02 22.224 222.956 22.024 222.956 21.768V17.76H220.58V21.828C220.58 22.34 220.332 22.596 219.836 22.596ZM223.736 15.432C223.464 15.432 223.252 15.364 223.1 15.228C222.956 15.084 222.884 14.888 222.884 14.64C222.884 14.384 222.956 14.188 223.1 14.052C223.252 13.916 223.464 13.848 223.736 13.848C224.016 13.848 224.228 13.916 224.372 14.052C224.524 14.188 224.6 14.384 224.6 14.64C224.6 14.888 224.524 15.084 224.372 15.228C224.228 15.364 224.016 15.432 223.736 15.432ZM228.756 24.78C228.324 24.78 227.904 24.74 227.496 24.66C227.096 24.58 226.732 24.456 226.404 24.288C226.252 24.208 226.148 24.112 226.092 24C226.044 23.888 226.028 23.772 226.044 23.652C226.068 23.54 226.116 23.44 226.188 23.352C226.268 23.264 226.364 23.204 226.476 23.172C226.588 23.14 226.704 23.156 226.824 23.22C227.176 23.396 227.508 23.508 227.82 23.556C228.14 23.612 228.412 23.64 228.636 23.64C229.172 23.64 229.572 23.508 229.836 23.244C230.108 22.988 230.244 22.604 230.244 22.092V21.012H230.352C230.232 21.42 229.98 21.748 229.596 21.996C229.22 22.236 228.792 22.356 228.312 22.356C227.784 22.356 227.324 22.236 226.932 21.996C226.54 21.748 226.236 21.404 226.02 20.964C225.804 20.524 225.696 20.012 225.696 19.428C225.696 18.988 225.756 18.592 225.876 18.24C226.004 17.88 226.18 17.572 226.404 17.316C226.636 17.06 226.912 16.864 227.232 16.728C227.56 16.584 227.92 16.512 228.312 16.512C228.808 16.512 229.24 16.636 229.608 16.884C229.984 17.124 230.228 17.444 230.34 17.844L230.22 18.144V17.292C230.22 17.044 230.284 16.856 230.412 16.728C230.548 16.6 230.732 16.536 230.964 16.536C231.204 16.536 231.388 16.6 231.516 16.728C231.644 16.856 231.708 17.044 231.708 17.292V21.912C231.708 22.864 231.456 23.58 230.952 24.06C230.448 24.54 229.716 24.78 228.756 24.78ZM228.72 21.216C229.032 21.216 229.3 21.144 229.524 21C229.748 20.856 229.92 20.652 230.04 20.388C230.168 20.116 230.232 19.796 230.232 19.428C230.232 18.876 230.096 18.444 229.824 18.132C229.552 17.812 229.184 17.652 228.72 17.652C228.408 17.652 228.14 17.724 227.916 17.868C227.692 18.012 227.516 18.216 227.388 18.48C227.268 18.744 227.208 19.06 227.208 19.428C227.208 19.98 227.344 20.416 227.616 20.736C227.888 21.056 228.256 21.216 228.72 21.216ZM235.41 22.62C235.066 22.62 234.702 22.584 234.318 22.512C233.934 22.44 233.59 22.316 233.286 22.14C233.158 22.06 233.066 21.968 233.01 21.864C232.962 21.752 232.942 21.644 232.95 21.54C232.966 21.428 233.006 21.332 233.07 21.252C233.142 21.172 233.23 21.12 233.334 21.096C233.446 21.072 233.566 21.092 233.694 21.156C234.014 21.308 234.314 21.416 234.594 21.48C234.874 21.536 235.15 21.564 235.422 21.564C235.806 21.564 236.09 21.5 236.274 21.372C236.466 21.236 236.562 21.06 236.562 20.844C236.562 20.66 236.498 20.52 236.37 20.424C236.25 20.32 236.066 20.244 235.818 20.196L234.618 19.968C234.122 19.872 233.742 19.692 233.478 19.428C233.222 19.156 233.094 18.808 233.094 18.384C233.094 18 233.198 17.668 233.406 17.388C233.622 17.108 233.918 16.892 234.294 16.74C234.67 16.588 235.102 16.512 235.59 16.512C235.942 16.512 236.27 16.552 236.574 16.632C236.886 16.704 237.186 16.82 237.474 16.98C237.594 17.044 237.674 17.128 237.714 17.232C237.762 17.336 237.774 17.444 237.75 17.556C237.726 17.66 237.678 17.756 237.606 17.844C237.534 17.924 237.442 17.976 237.33 18C237.226 18.016 237.106 17.992 236.97 17.928C236.722 17.8 236.482 17.708 236.25 17.652C236.026 17.596 235.81 17.568 235.602 17.568C235.21 17.568 234.918 17.636 234.726 17.772C234.542 17.908 234.45 18.088 234.45 18.312C234.45 18.48 234.506 18.62 234.618 18.732C234.73 18.844 234.902 18.92 235.134 18.96L236.334 19.188C236.854 19.284 237.246 19.46 237.51 19.716C237.782 19.972 237.918 20.316 237.918 20.748C237.918 21.332 237.69 21.792 237.234 22.128C236.778 22.456 236.17 22.62 235.41 22.62Z" fill="#494369"/>
</g>
<path d="M144.5 5.5C144.5 4.11929 145.619 3 147 3H261C262.381 3 263.5 4.11929 263.5 5.5V31.5C263.5 32.8807 262.381 34 261 34H147C145.619 34 144.5 32.8807 144.5 31.5V5.5Z" stroke="#EBEBF0" stroke-opacity="0.5"/>
<path d="M286 5.5C286 3.84315 287.343 2.5 289 2.5H403C404.657 2.5 406 3.84315 406 5.5V31.5C406 33.1569 404.657 34.5 403 34.5H289C287.343 34.5 286 33.1569 286 31.5V5.5Z" fill="white"/>
<path d="M322.262 21.596C322.014 21.596 321.822 21.528 321.686 21.392C321.558 21.248 321.494 21.052 321.494 20.804V13.82C321.494 13.564 321.562 13.372 321.698 13.244C321.834 13.108 322.026 13.04 322.274 13.04H325.166C326.094 13.04 326.81 13.272 327.314 13.736C327.818 14.2 328.07 14.848 328.07 15.68C328.07 16.512 327.818 17.164 327.314 17.636C326.81 18.1 326.094 18.332 325.166 18.332H323.03V20.804C323.03 21.052 322.966 21.248 322.838 21.392C322.71 21.528 322.518 21.596 322.262 21.596ZM323.03 17.12H324.926C325.47 17.12 325.882 17 326.162 16.76C326.442 16.512 326.582 16.152 326.582 15.68C326.582 15.208 326.442 14.852 326.162 14.612C325.882 14.372 325.47 14.252 324.926 14.252H323.03V17.12ZM329.922 21.584C329.682 21.584 329.498 21.512 329.37 21.368C329.242 21.224 329.178 21.024 329.178 20.768V16.364C329.178 16.1 329.242 15.9 329.37 15.764C329.498 15.62 329.682 15.548 329.922 15.548C330.162 15.548 330.346 15.62 330.474 15.764C330.61 15.9 330.678 16.1 330.678 16.364V20.768C330.678 21.024 330.614 21.224 330.486 21.368C330.358 21.512 330.17 21.584 329.922 21.584ZM329.922 14.432C329.642 14.432 329.422 14.364 329.262 14.228C329.11 14.084 329.034 13.888 329.034 13.64C329.034 13.384 329.11 13.188 329.262 13.052C329.422 12.916 329.642 12.848 329.922 12.848C330.21 12.848 330.43 12.916 330.582 13.052C330.734 13.188 330.81 13.384 330.81 13.64C330.81 13.888 330.734 14.084 330.582 14.228C330.43 14.364 330.21 14.432 329.922 14.432ZM332.981 23.756C332.741 23.756 332.557 23.692 332.429 23.564C332.301 23.436 332.237 23.248 332.237 23V16.292C332.237 16.044 332.301 15.856 332.429 15.728C332.557 15.6 332.737 15.536 332.969 15.536C333.209 15.536 333.393 15.6 333.521 15.728C333.649 15.856 333.713 16.044 333.713 16.292V17.228L333.581 16.868C333.701 16.46 333.945 16.132 334.313 15.884C334.689 15.636 335.125 15.512 335.621 15.512C336.133 15.512 336.581 15.636 336.965 15.884C337.357 16.132 337.661 16.484 337.877 16.94C338.093 17.388 338.201 17.928 338.201 18.56C338.201 19.184 338.093 19.728 337.877 20.192C337.661 20.648 337.361 21 336.977 21.248C336.593 21.496 336.141 21.62 335.621 21.62C335.133 21.62 334.705 21.5 334.337 21.26C333.969 21.012 333.721 20.692 333.593 20.3H333.737V23C333.737 23.248 333.669 23.436 333.533 23.564C333.405 23.692 333.221 23.756 332.981 23.756ZM335.201 20.48C335.497 20.48 335.757 20.408 335.981 20.264C336.205 20.12 336.377 19.908 336.497 19.628C336.625 19.34 336.689 18.984 336.689 18.56C336.689 17.92 336.553 17.444 336.281 17.132C336.009 16.812 335.649 16.652 335.201 16.652C334.905 16.652 334.645 16.724 334.421 16.868C334.197 17.004 334.021 17.216 333.893 17.504C333.773 17.784 333.713 18.136 333.713 18.56C333.713 19.192 333.849 19.672 334.121 20C334.393 20.32 334.753 20.48 335.201 20.48ZM342.324 21.62C341.66 21.62 341.088 21.496 340.608 21.248C340.128 21 339.756 20.648 339.492 20.192C339.236 19.736 339.108 19.196 339.108 18.572C339.108 17.964 339.232 17.432 339.48 16.976C339.736 16.52 340.084 16.164 340.524 15.908C340.972 15.644 341.48 15.512 342.048 15.512C342.464 15.512 342.836 15.58 343.164 15.716C343.5 15.852 343.784 16.048 344.016 16.304C344.256 16.56 344.436 16.872 344.556 17.24C344.684 17.6 344.748 18.008 344.748 18.464C344.748 18.608 344.696 18.72 344.592 18.8C344.496 18.872 344.356 18.908 344.172 18.908H340.32V18.044H343.692L343.5 18.224C343.5 17.856 343.444 17.548 343.332 17.3C343.228 17.052 343.072 16.864 342.864 16.736C342.664 16.6 342.412 16.532 342.108 16.532C341.772 16.532 341.484 16.612 341.244 16.772C341.012 16.924 340.832 17.144 340.704 17.432C340.584 17.712 340.524 18.048 340.524 18.44V18.524C340.524 19.18 340.676 19.672 340.98 20C341.292 20.32 341.748 20.48 342.348 20.48C342.556 20.48 342.788 20.456 343.044 20.408C343.308 20.352 343.556 20.26 343.788 20.132C343.956 20.036 344.104 19.996 344.232 20.012C344.36 20.02 344.46 20.064 344.532 20.144C344.612 20.224 344.66 20.324 344.676 20.444C344.692 20.556 344.668 20.672 344.604 20.792C344.548 20.912 344.448 21.016 344.304 21.104C344.024 21.28 343.7 21.412 343.332 21.5C342.972 21.58 342.636 21.62 342.324 21.62ZM347.94 21.62C347.276 21.62 346.776 21.432 346.44 21.056C346.104 20.672 345.936 20.112 345.936 19.376V13.7C345.936 13.452 346 13.264 346.128 13.136C346.256 13.008 346.44 12.944 346.68 12.944C346.92 12.944 347.104 13.008 347.232 13.136C347.368 13.264 347.436 13.452 347.436 13.7V19.304C347.436 19.672 347.512 19.944 347.664 20.12C347.824 20.296 348.048 20.384 348.336 20.384C348.4 20.384 348.46 20.384 348.516 20.384C348.572 20.376 348.628 20.368 348.684 20.36C348.796 20.344 348.872 20.376 348.912 20.456C348.952 20.528 348.972 20.68 348.972 20.912C348.972 21.112 348.932 21.268 348.852 21.38C348.772 21.492 348.64 21.56 348.456 21.584C348.376 21.592 348.292 21.6 348.204 21.608C348.116 21.616 348.028 21.62 347.94 21.62ZM350.512 21.584C350.272 21.584 350.088 21.512 349.96 21.368C349.832 21.224 349.768 21.024 349.768 20.768V16.364C349.768 16.1 349.832 15.9 349.96 15.764C350.088 15.62 350.272 15.548 350.512 15.548C350.752 15.548 350.936 15.62 351.064 15.764C351.2 15.9 351.268 16.1 351.268 16.364V20.768C351.268 21.024 351.204 21.224 351.076 21.368C350.948 21.512 350.76 21.584 350.512 21.584ZM350.512 14.432C350.232 14.432 350.012 14.364 349.852 14.228C349.7 14.084 349.624 13.888 349.624 13.64C349.624 13.384 349.7 13.188 349.852 13.052C350.012 12.916 350.232 12.848 350.512 12.848C350.8 12.848 351.02 12.916 351.172 13.052C351.324 13.188 351.4 13.384 351.4 13.64C351.4 13.888 351.324 14.084 351.172 14.228C351.02 14.364 350.8 14.432 350.512 14.432ZM353.571 21.596C353.331 21.596 353.147 21.532 353.019 21.404C352.891 21.268 352.827 21.076 352.827 20.828V16.292C352.827 16.044 352.891 15.856 353.019 15.728C353.147 15.6 353.327 15.536 353.559 15.536C353.791 15.536 353.971 15.6 354.099 15.728C354.227 15.856 354.291 16.044 354.291 16.292V17.108L354.159 16.808C354.335 16.384 354.607 16.064 354.975 15.848C355.351 15.624 355.775 15.512 356.247 15.512C356.719 15.512 357.107 15.6 357.411 15.776C357.715 15.952 357.943 16.22 358.095 16.58C358.247 16.932 358.323 17.38 358.323 17.924V20.828C358.323 21.076 358.259 21.268 358.131 21.404C358.003 21.532 357.819 21.596 357.579 21.596C357.339 21.596 357.151 21.532 357.015 21.404C356.887 21.268 356.823 21.076 356.823 20.828V17.996C356.823 17.54 356.735 17.208 356.559 17C356.391 16.792 356.127 16.688 355.767 16.688C355.327 16.688 354.975 16.828 354.711 17.108C354.455 17.38 354.327 17.744 354.327 18.2V20.828C354.327 21.34 354.075 21.596 353.571 21.596ZM362.738 21.62C362.074 21.62 361.502 21.496 361.022 21.248C360.542 21 360.17 20.648 359.906 20.192C359.65 19.736 359.522 19.196 359.522 18.572C359.522 17.964 359.646 17.432 359.894 16.976C360.15 16.52 360.498 16.164 360.938 15.908C361.386 15.644 361.894 15.512 362.462 15.512C362.878 15.512 363.25 15.58 363.578 15.716C363.914 15.852 364.198 16.048 364.43 16.304C364.67 16.56 364.85 16.872 364.97 17.24C365.098 17.6 365.162 18.008 365.162 18.464C365.162 18.608 365.11 18.72 365.006 18.8C364.91 18.872 364.77 18.908 364.586 18.908H360.734V18.044H364.106L363.914 18.224C363.914 17.856 363.858 17.548 363.746 17.3C363.642 17.052 363.486 16.864 363.278 16.736C363.078 16.6 362.826 16.532 362.522 16.532C362.186 16.532 361.898 16.612 361.658 16.772C361.426 16.924 361.246 17.144 361.118 17.432C360.998 17.712 360.938 18.048 360.938 18.44V18.524C360.938 19.18 361.09 19.672 361.394 20C361.706 20.32 362.162 20.48 362.762 20.48C362.97 20.48 363.202 20.456 363.458 20.408C363.722 20.352 363.97 20.26 364.202 20.132C364.37 20.036 364.518 19.996 364.646 20.012C364.774 20.02 364.874 20.064 364.946 20.144C365.026 20.224 365.074 20.324 365.09 20.444C365.106 20.556 365.082 20.672 365.018 20.792C364.962 20.912 364.862 21.016 364.718 21.104C364.438 21.28 364.114 21.412 363.746 21.5C363.386 21.58 363.05 21.62 362.738 21.62ZM368.498 21.62C368.154 21.62 367.79 21.584 367.406 21.512C367.022 21.44 366.678 21.316 366.374 21.14C366.246 21.06 366.154 20.968 366.098 20.864C366.05 20.752 366.03 20.644 366.038 20.54C366.054 20.428 366.094 20.332 366.158 20.252C366.23 20.172 366.318 20.12 366.422 20.096C366.534 20.072 366.654 20.092 366.782 20.156C367.102 20.308 367.402 20.416 367.682 20.48C367.962 20.536 368.238 20.564 368.51 20.564C368.894 20.564 369.178 20.5 369.362 20.372C369.554 20.236 369.65 20.06 369.65 19.844C369.65 19.66 369.586 19.52 369.458 19.424C369.338 19.32 369.154 19.244 368.906 19.196L367.706 18.968C367.21 18.872 366.83 18.692 366.566 18.428C366.31 18.156 366.182 17.808 366.182 17.384C366.182 17 366.286 16.668 366.494 16.388C366.71 16.108 367.006 15.892 367.382 15.74C367.758 15.588 368.19 15.512 368.678 15.512C369.03 15.512 369.358 15.552 369.662 15.632C369.974 15.704 370.274 15.82 370.562 15.98C370.682 16.044 370.762 16.128 370.802 16.232C370.85 16.336 370.862 16.444 370.838 16.556C370.814 16.66 370.766 16.756 370.694 16.844C370.622 16.924 370.53 16.976 370.418 17C370.314 17.016 370.194 16.992 370.058 16.928C369.81 16.8 369.57 16.708 369.338 16.652C369.114 16.596 368.898 16.568 368.69 16.568C368.298 16.568 368.006 16.636 367.814 16.772C367.63 16.908 367.538 17.088 367.538 17.312C367.538 17.48 367.594 17.62 367.706 17.732C367.818 17.844 367.99 17.92 368.222 17.96L369.422 18.188C369.942 18.284 370.334 18.46 370.598 18.716C370.87 18.972 371.006 19.316 371.006 19.748C371.006 20.332 370.778 20.792 370.322 21.128C369.866 21.456 369.258 21.62 368.498 21.62Z" fill="#494369"/>
<path d="M286.5 5.5C286.5 4.11929 287.619 3 289 3H403C404.381 3 405.5 4.11929 405.5 5.5V31.5C405.5 32.8807 404.381 34 403 34H289C287.619 34 286.5 32.8807 286.5 31.5V5.5Z" stroke="#EBEBF0" stroke-opacity="0.5"/>
<g clip-path="url(#clip3_2731_30627)">
<path d="M428 5.5C428 3.84315 429.343 2.5 431 2.5H545C546.657 2.5 548 3.84315 548 5.5V31.5C548 33.1569 546.657 34.5 545 34.5H431C429.343 34.5 428 33.1569 428 31.5V5.5Z" fill="white"/>
<path d="M451.284 22.596C451.036 22.596 450.844 22.528 450.708 22.392C450.58 22.248 450.516 22.052 450.516 21.804V14.736C450.516 14.48 450.58 14.284 450.708 14.148C450.844 14.012 451.036 13.944 451.284 13.944C451.532 13.944 451.72 14.012 451.848 14.148C451.984 14.284 452.052 14.48 452.052 14.736V21.804C452.052 22.052 451.988 22.248 451.86 22.392C451.732 22.528 451.54 22.596 451.284 22.596ZM454.503 22.596C454.263 22.596 454.079 22.532 453.951 22.404C453.823 22.268 453.759 22.076 453.759 21.828V17.292C453.759 17.044 453.823 16.856 453.951 16.728C454.079 16.6 454.259 16.536 454.491 16.536C454.723 16.536 454.903 16.6 455.031 16.728C455.159 16.856 455.223 17.044 455.223 17.292V18.108L455.091 17.808C455.267 17.384 455.539 17.064 455.907 16.848C456.283 16.624 456.707 16.512 457.179 16.512C457.651 16.512 458.039 16.6 458.343 16.776C458.647 16.952 458.875 17.22 459.027 17.58C459.179 17.932 459.255 18.38 459.255 18.924V21.828C459.255 22.076 459.191 22.268 459.063 22.404C458.935 22.532 458.751 22.596 458.511 22.596C458.271 22.596 458.083 22.532 457.947 22.404C457.819 22.268 457.755 22.076 457.755 21.828V18.996C457.755 18.54 457.667 18.208 457.491 18C457.323 17.792 457.059 17.688 456.699 17.688C456.259 17.688 455.907 17.828 455.643 18.108C455.387 18.38 455.259 18.744 455.259 19.2V21.828C455.259 22.34 455.007 22.596 454.503 22.596ZM461.93 22.596C461.69 22.596 461.502 22.532 461.366 22.404C461.238 22.268 461.174 22.076 461.174 21.828V17.76H460.622C460.43 17.76 460.282 17.712 460.178 17.616C460.074 17.512 460.022 17.372 460.022 17.196C460.022 17.012 460.074 16.872 460.178 16.776C460.282 16.68 460.43 16.632 460.622 16.632H461.606L461.174 17.028V16.62C461.174 15.796 461.382 15.18 461.798 14.772C462.214 14.356 462.814 14.112 463.598 14.04L464.006 14.004C464.166 13.988 464.294 14.016 464.39 14.088C464.486 14.152 464.55 14.24 464.582 14.352C464.614 14.456 464.618 14.564 464.594 14.676C464.57 14.788 464.518 14.888 464.438 14.976C464.366 15.056 464.27 15.1 464.15 15.108L463.982 15.12C463.526 15.152 463.194 15.268 462.986 15.468C462.778 15.668 462.674 15.972 462.674 16.38V16.824L462.482 16.632H463.694C463.886 16.632 464.034 16.68 464.138 16.776C464.242 16.872 464.294 17.012 464.294 17.196C464.294 17.372 464.242 17.512 464.138 17.616C464.034 17.712 463.886 17.76 463.694 17.76H462.674V21.828C462.674 22.34 462.426 22.596 461.93 22.596ZM465.917 22.596C465.669 22.596 465.477 22.532 465.341 22.404C465.213 22.268 465.149 22.076 465.149 21.828V17.292C465.149 17.044 465.213 16.856 465.341 16.728C465.469 16.6 465.649 16.536 465.881 16.536C466.113 16.536 466.293 16.6 466.421 16.728C466.549 16.856 466.613 17.044 466.613 17.292V18.048H466.493C466.605 17.568 466.825 17.204 467.153 16.956C467.481 16.708 467.917 16.56 468.461 16.512C468.629 16.496 468.761 16.54 468.857 16.644C468.961 16.74 469.021 16.892 469.037 17.1C469.053 17.3 469.005 17.464 468.893 17.592C468.789 17.712 468.629 17.784 468.413 17.808L468.149 17.832C467.661 17.88 467.293 18.032 467.045 18.288C466.797 18.536 466.673 18.888 466.673 19.344V21.828C466.673 22.076 466.609 22.268 466.481 22.404C466.353 22.532 466.165 22.596 465.917 22.596ZM471.722 22.62C471.298 22.62 470.918 22.54 470.582 22.38C470.254 22.212 469.994 21.988 469.802 21.708C469.618 21.428 469.526 21.112 469.526 20.76C469.526 20.328 469.638 19.988 469.862 19.74C470.086 19.484 470.45 19.3 470.954 19.188C471.458 19.076 472.134 19.02 472.982 19.02H473.582V19.884H472.994C472.498 19.884 472.102 19.908 471.806 19.956C471.51 20.004 471.298 20.088 471.17 20.208C471.05 20.32 470.99 20.48 470.99 20.688C470.99 20.952 471.082 21.168 471.266 21.336C471.45 21.504 471.706 21.588 472.034 21.588C472.298 21.588 472.53 21.528 472.73 21.408C472.938 21.28 473.102 21.108 473.222 20.892C473.342 20.676 473.402 20.428 473.402 20.148V18.768C473.402 18.368 473.314 18.08 473.138 17.904C472.962 17.728 472.666 17.64 472.25 17.64C472.018 17.64 471.766 17.668 471.494 17.724C471.23 17.78 470.95 17.876 470.654 18.012C470.502 18.084 470.366 18.104 470.246 18.072C470.134 18.04 470.046 17.976 469.982 17.88C469.918 17.776 469.886 17.664 469.886 17.544C469.886 17.424 469.918 17.308 469.982 17.196C470.046 17.076 470.154 16.988 470.306 16.932C470.674 16.78 471.026 16.672 471.362 16.608C471.706 16.544 472.018 16.512 472.298 16.512C472.874 16.512 473.346 16.6 473.714 16.776C474.09 16.952 474.37 17.22 474.554 17.58C474.738 17.932 474.83 18.388 474.83 18.948V21.828C474.83 22.076 474.77 22.268 474.65 22.404C474.53 22.532 474.358 22.596 474.134 22.596C473.91 22.596 473.734 22.532 473.606 22.404C473.486 22.268 473.426 22.076 473.426 21.828V21.252H473.522C473.466 21.532 473.354 21.776 473.186 21.984C473.026 22.184 472.822 22.34 472.574 22.452C472.326 22.564 472.042 22.62 471.722 22.62ZM483.69 22.62C482.81 22.62 482.054 22.444 481.422 22.092C480.798 21.732 480.318 21.228 479.982 20.58C479.646 19.924 479.478 19.152 479.478 18.264C479.478 17.6 479.574 17.004 479.766 16.476C479.958 15.94 480.234 15.484 480.594 15.108C480.954 14.724 481.394 14.432 481.914 14.232C482.442 14.024 483.034 13.92 483.69 13.92C484.13 13.92 484.562 13.976 484.986 14.088C485.41 14.2 485.782 14.36 486.102 14.568C486.27 14.672 486.382 14.8 486.438 14.952C486.494 15.096 486.506 15.24 486.474 15.384C486.442 15.52 486.374 15.636 486.27 15.732C486.174 15.828 486.05 15.884 485.898 15.9C485.754 15.908 485.594 15.856 485.418 15.744C485.17 15.584 484.902 15.468 484.614 15.396C484.326 15.324 484.034 15.288 483.738 15.288C483.17 15.288 482.69 15.404 482.298 15.636C481.906 15.868 481.61 16.204 481.41 16.644C481.21 17.084 481.11 17.624 481.11 18.264C481.11 18.896 481.21 19.436 481.41 19.884C481.61 20.332 481.906 20.672 482.298 20.904C482.69 21.136 483.17 21.252 483.738 21.252C484.042 21.252 484.342 21.216 484.638 21.144C484.934 21.064 485.214 20.944 485.478 20.784C485.654 20.68 485.81 20.636 485.946 20.652C486.09 20.66 486.21 20.708 486.306 20.796C486.402 20.884 486.466 20.996 486.498 21.132C486.53 21.26 486.522 21.396 486.474 21.54C486.426 21.676 486.33 21.796 486.186 21.9C485.866 22.132 485.482 22.312 485.034 22.44C484.594 22.56 484.146 22.62 483.69 22.62ZM488.534 22.596C488.286 22.596 488.094 22.532 487.958 22.404C487.83 22.268 487.766 22.076 487.766 21.828V17.292C487.766 17.044 487.83 16.856 487.958 16.728C488.086 16.6 488.266 16.536 488.498 16.536C488.73 16.536 488.91 16.6 489.038 16.728C489.166 16.856 489.23 17.044 489.23 17.292V18.048H489.11C489.222 17.568 489.442 17.204 489.77 16.956C490.098 16.708 490.534 16.56 491.078 16.512C491.246 16.496 491.378 16.54 491.474 16.644C491.578 16.74 491.638 16.892 491.654 17.1C491.67 17.3 491.622 17.464 491.51 17.592C491.406 17.712 491.246 17.784 491.03 17.808L490.766 17.832C490.278 17.88 489.91 18.032 489.662 18.288C489.414 18.536 489.29 18.888 489.29 19.344V21.828C489.29 22.076 489.226 22.268 489.098 22.404C488.97 22.532 488.782 22.596 488.534 22.596ZM495.264 22.62C494.6 22.62 494.028 22.496 493.548 22.248C493.068 22 492.696 21.648 492.432 21.192C492.176 20.736 492.048 20.196 492.048 19.572C492.048 18.964 492.172 18.432 492.42 17.976C492.676 17.52 493.024 17.164 493.464 16.908C493.912 16.644 494.42 16.512 494.988 16.512C495.404 16.512 495.776 16.58 496.104 16.716C496.44 16.852 496.724 17.048 496.956 17.304C497.196 17.56 497.376 17.872 497.496 18.24C497.624 18.6 497.688 19.008 497.688 19.464C497.688 19.608 497.636 19.72 497.532 19.8C497.436 19.872 497.296 19.908 497.112 19.908H493.26V19.044H496.632L496.44 19.224C496.44 18.856 496.384 18.548 496.272 18.3C496.168 18.052 496.012 17.864 495.804 17.736C495.604 17.6 495.352 17.532 495.048 17.532C494.712 17.532 494.424 17.612 494.184 17.772C493.952 17.924 493.772 18.144 493.644 18.432C493.524 18.712 493.464 19.048 493.464 19.44V19.524C493.464 20.18 493.616 20.672 493.92 21C494.232 21.32 494.688 21.48 495.288 21.48C495.496 21.48 495.728 21.456 495.984 21.408C496.248 21.352 496.496 21.26 496.728 21.132C496.896 21.036 497.044 20.996 497.172 21.012C497.3 21.02 497.4 21.064 497.472 21.144C497.552 21.224 497.6 21.324 497.616 21.444C497.632 21.556 497.608 21.672 497.544 21.792C497.488 21.912 497.388 22.016 497.244 22.104C496.964 22.28 496.64 22.412 496.272 22.5C495.912 22.58 495.576 22.62 495.264 22.62ZM500.808 22.62C500.384 22.62 500.004 22.54 499.668 22.38C499.34 22.212 499.08 21.988 498.888 21.708C498.704 21.428 498.612 21.112 498.612 20.76C498.612 20.328 498.724 19.988 498.948 19.74C499.172 19.484 499.536 19.3 500.04 19.188C500.544 19.076 501.22 19.02 502.068 19.02H502.668V19.884H502.08C501.584 19.884 501.188 19.908 500.892 19.956C500.596 20.004 500.384 20.088 500.256 20.208C500.136 20.32 500.076 20.48 500.076 20.688C500.076 20.952 500.168 21.168 500.352 21.336C500.536 21.504 500.792 21.588 501.12 21.588C501.384 21.588 501.616 21.528 501.816 21.408C502.024 21.28 502.188 21.108 502.308 20.892C502.428 20.676 502.488 20.428 502.488 20.148V18.768C502.488 18.368 502.4 18.08 502.224 17.904C502.048 17.728 501.752 17.64 501.336 17.64C501.104 17.64 500.852 17.668 500.58 17.724C500.316 17.78 500.036 17.876 499.74 18.012C499.588 18.084 499.452 18.104 499.332 18.072C499.22 18.04 499.132 17.976 499.068 17.88C499.004 17.776 498.972 17.664 498.972 17.544C498.972 17.424 499.004 17.308 499.068 17.196C499.132 17.076 499.24 16.988 499.392 16.932C499.76 16.78 500.112 16.672 500.448 16.608C500.792 16.544 501.104 16.512 501.384 16.512C501.96 16.512 502.432 16.6 502.8 16.776C503.176 16.952 503.456 17.22 503.64 17.58C503.824 17.932 503.916 18.388 503.916 18.948V21.828C503.916 22.076 503.856 22.268 503.736 22.404C503.616 22.532 503.444 22.596 503.22 22.596C502.996 22.596 502.82 22.532 502.692 22.404C502.572 22.268 502.512 22.076 502.512 21.828V21.252H502.608C502.552 21.532 502.44 21.776 502.272 21.984C502.112 22.184 501.908 22.34 501.66 22.452C501.412 22.564 501.128 22.62 500.808 22.62ZM508.126 22.62C507.606 22.62 507.17 22.532 506.818 22.356C506.474 22.18 506.218 21.924 506.05 21.588C505.882 21.244 505.798 20.82 505.798 20.316V17.76H505.174C504.982 17.76 504.834 17.712 504.73 17.616C504.626 17.512 504.574 17.372 504.574 17.196C504.574 17.012 504.626 16.872 504.73 16.776C504.834 16.68 504.982 16.632 505.174 16.632H505.798V15.54C505.798 15.292 505.862 15.104 505.99 14.976C506.126 14.848 506.314 14.784 506.554 14.784C506.794 14.784 506.978 14.848 507.106 14.976C507.234 15.104 507.298 15.292 507.298 15.54V16.632H508.57C508.762 16.632 508.91 16.68 509.014 16.776C509.118 16.872 509.17 17.012 509.17 17.196C509.17 17.372 509.118 17.512 509.014 17.616C508.91 17.712 508.762 17.76 508.57 17.76H507.298V20.232C507.298 20.616 507.382 20.904 507.55 21.096C507.718 21.288 507.99 21.384 508.366 21.384C508.502 21.384 508.622 21.372 508.726 21.348C508.83 21.324 508.922 21.308 509.002 21.3C509.098 21.292 509.178 21.324 509.242 21.396C509.306 21.46 509.338 21.596 509.338 21.804C509.338 21.964 509.31 22.108 509.254 22.236C509.206 22.356 509.114 22.44 508.978 22.488C508.874 22.52 508.738 22.548 508.57 22.572C508.402 22.604 508.254 22.62 508.126 22.62ZM510.94 22.584C510.7 22.584 510.516 22.512 510.388 22.368C510.26 22.224 510.196 22.024 510.196 21.768V17.364C510.196 17.1 510.26 16.9 510.388 16.764C510.516 16.62 510.7 16.548 510.94 16.548C511.18 16.548 511.364 16.62 511.492 16.764C511.628 16.9 511.696 17.1 511.696 17.364V21.768C511.696 22.024 511.632 22.224 511.504 22.368C511.376 22.512 511.188 22.584 510.94 22.584ZM510.94 15.432C510.66 15.432 510.44 15.364 510.28 15.228C510.128 15.084 510.052 14.888 510.052 14.64C510.052 14.384 510.128 14.188 510.28 14.052C510.44 13.916 510.66 13.848 510.94 13.848C511.228 13.848 511.448 13.916 511.6 14.052C511.752 14.188 511.828 14.384 511.828 14.64C511.828 14.888 511.752 15.084 511.6 15.228C511.448 15.364 511.228 15.432 510.94 15.432ZM515.931 22.62C515.323 22.62 514.795 22.496 514.347 22.248C513.899 22 513.551 21.648 513.303 21.192C513.055 20.728 512.931 20.184 512.931 19.56C512.931 19.088 512.999 18.668 513.135 18.3C513.279 17.924 513.483 17.604 513.747 17.34C514.011 17.068 514.327 16.864 514.695 16.728C515.063 16.584 515.475 16.512 515.931 16.512C516.539 16.512 517.067 16.636 517.515 16.884C517.963 17.132 518.311 17.484 518.559 17.94C518.807 18.396 518.931 18.936 518.931 19.56C518.931 20.032 518.859 20.456 518.715 20.832C518.579 21.208 518.379 21.532 518.115 21.804C517.851 22.068 517.535 22.272 517.167 22.416C516.799 22.552 516.387 22.62 515.931 22.62ZM515.931 21.48C516.227 21.48 516.487 21.408 516.711 21.264C516.935 21.12 517.107 20.908 517.227 20.628C517.355 20.34 517.419 19.984 517.419 19.56C517.419 18.92 517.283 18.444 517.011 18.132C516.739 17.812 516.379 17.652 515.931 17.652C515.635 17.652 515.375 17.724 515.151 17.868C514.927 18.004 514.751 18.216 514.623 18.504C514.503 18.784 514.443 19.136 514.443 19.56C514.443 20.192 514.579 20.672 514.851 21C515.123 21.32 515.483 21.48 515.931 21.48ZM520.913 22.596C520.673 22.596 520.489 22.532 520.361 22.404C520.233 22.268 520.169 22.076 520.169 21.828V17.292C520.169 17.044 520.233 16.856 520.361 16.728C520.489 16.6 520.669 16.536 520.901 16.536C521.133 16.536 521.313 16.6 521.441 16.728C521.569 16.856 521.633 17.044 521.633 17.292V18.108L521.501 17.808C521.677 17.384 521.949 17.064 522.317 16.848C522.693 16.624 523.117 16.512 523.589 16.512C524.061 16.512 524.449 16.6 524.753 16.776C525.057 16.952 525.285 17.22 525.437 17.58C525.589 17.932 525.665 18.38 525.665 18.924V21.828C525.665 22.076 525.601 22.268 525.473 22.404C525.345 22.532 525.161 22.596 524.921 22.596C524.681 22.596 524.493 22.532 524.357 22.404C524.229 22.268 524.165 22.076 524.165 21.828V18.996C524.165 18.54 524.077 18.208 523.901 18C523.733 17.792 523.469 17.688 523.109 17.688C522.669 17.688 522.317 17.828 522.053 18.108C521.797 18.38 521.669 18.744 521.669 19.2V21.828C521.669 22.34 521.417 22.596 520.913 22.596Z" fill="#494369"/>
</g>
<path d="M428.5 5.5C428.5 4.11929 429.619 3 431 3H545C546.381 3 547.5 4.11929 547.5 5.5V31.5C547.5 32.8807 546.381 34 545 34H431C429.619 34 428.5 32.8807 428.5 31.5V5.5Z" stroke="#EBEBF0" stroke-opacity="0.5"/>
<g clip-path="url(#clip4_2731_30627)">
<path d="M570 5.5C570 3.84315 571.343 2.5 573 2.5H687C688.657 2.5 690 3.84315 690 5.5V31.5C690 33.1569 688.657 34.5 687 34.5H573C571.343 34.5 570 33.1569 570 31.5V5.5Z" fill="white"/>
<path d="M622.333 22.62C621.453 22.62 620.697 22.444 620.065 22.092C619.441 21.732 618.961 21.228 618.625 20.58C618.289 19.924 618.121 19.152 618.121 18.264C618.121 17.6 618.217 17.004 618.409 16.476C618.601 15.94 618.877 15.484 619.237 15.108C619.597 14.724 620.037 14.432 620.557 14.232C621.085 14.024 621.677 13.92 622.333 13.92C622.773 13.92 623.205 13.976 623.629 14.088C624.053 14.2 624.425 14.36 624.745 14.568C624.913 14.672 625.025 14.8 625.081 14.952C625.137 15.096 625.149 15.24 625.117 15.384C625.085 15.52 625.017 15.636 624.913 15.732C624.817 15.828 624.693 15.884 624.541 15.9C624.397 15.908 624.237 15.856 624.061 15.744C623.813 15.584 623.545 15.468 623.257 15.396C622.969 15.324 622.677 15.288 622.381 15.288C621.813 15.288 621.333 15.404 620.941 15.636C620.549 15.868 620.253 16.204 620.053 16.644C619.853 17.084 619.753 17.624 619.753 18.264C619.753 18.896 619.853 19.436 620.053 19.884C620.253 20.332 620.549 20.672 620.941 20.904C621.333 21.136 621.813 21.252 622.381 21.252C622.685 21.252 622.985 21.216 623.281 21.144C623.577 21.064 623.857 20.944 624.121 20.784C624.297 20.68 624.453 20.636 624.589 20.652C624.733 20.66 624.853 20.708 624.949 20.796C625.045 20.884 625.109 20.996 625.141 21.132C625.173 21.26 625.165 21.396 625.117 21.54C625.069 21.676 624.973 21.796 624.829 21.9C624.509 22.132 624.125 22.312 623.677 22.44C623.237 22.56 622.789 22.62 622.333 22.62ZM628.663 22.62C628.055 22.62 627.527 22.496 627.079 22.248C626.631 22 626.283 21.648 626.035 21.192C625.787 20.728 625.663 20.184 625.663 19.56C625.663 19.088 625.731 18.668 625.867 18.3C626.011 17.924 626.215 17.604 626.479 17.34C626.743 17.068 627.059 16.864 627.427 16.728C627.795 16.584 628.207 16.512 628.663 16.512C629.271 16.512 629.799 16.636 630.247 16.884C630.695 17.132 631.043 17.484 631.291 17.94C631.539 18.396 631.663 18.936 631.663 19.56C631.663 20.032 631.591 20.456 631.447 20.832C631.311 21.208 631.111 21.532 630.847 21.804C630.583 22.068 630.267 22.272 629.899 22.416C629.531 22.552 629.119 22.62 628.663 22.62ZM628.663 21.48C628.959 21.48 629.219 21.408 629.443 21.264C629.667 21.12 629.839 20.908 629.959 20.628C630.087 20.34 630.151 19.984 630.151 19.56C630.151 18.92 630.015 18.444 629.743 18.132C629.471 17.812 629.111 17.652 628.663 17.652C628.367 17.652 628.107 17.724 627.883 17.868C627.659 18.004 627.483 18.216 627.355 18.504C627.235 18.784 627.175 19.136 627.175 19.56C627.175 20.192 627.311 20.672 627.583 21C627.855 21.32 628.215 21.48 628.663 21.48ZM635.049 22.62C634.705 22.62 634.341 22.584 633.957 22.512C633.573 22.44 633.229 22.316 632.925 22.14C632.797 22.06 632.705 21.968 632.649 21.864C632.601 21.752 632.581 21.644 632.589 21.54C632.605 21.428 632.645 21.332 632.709 21.252C632.781 21.172 632.869 21.12 632.973 21.096C633.085 21.072 633.205 21.092 633.333 21.156C633.653 21.308 633.953 21.416 634.233 21.48C634.513 21.536 634.789 21.564 635.061 21.564C635.445 21.564 635.729 21.5 635.913 21.372C636.105 21.236 636.201 21.06 636.201 20.844C636.201 20.66 636.137 20.52 636.009 20.424C635.889 20.32 635.705 20.244 635.457 20.196L634.257 19.968C633.761 19.872 633.381 19.692 633.117 19.428C632.861 19.156 632.733 18.808 632.733 18.384C632.733 18 632.837 17.668 633.045 17.388C633.261 17.108 633.557 16.892 633.933 16.74C634.309 16.588 634.741 16.512 635.229 16.512C635.581 16.512 635.909 16.552 636.213 16.632C636.525 16.704 636.825 16.82 637.113 16.98C637.233 17.044 637.313 17.128 637.353 17.232C637.401 17.336 637.413 17.444 637.389 17.556C637.365 17.66 637.317 17.756 637.245 17.844C637.173 17.924 637.081 17.976 636.969 18C636.865 18.016 636.745 17.992 636.609 17.928C636.361 17.8 636.121 17.708 635.889 17.652C635.665 17.596 635.449 17.568 635.241 17.568C634.849 17.568 634.557 17.636 634.365 17.772C634.181 17.908 634.089 18.088 634.089 18.312C634.089 18.48 634.145 18.62 634.257 18.732C634.369 18.844 634.541 18.92 634.773 18.96L635.973 19.188C636.493 19.284 636.885 19.46 637.149 19.716C637.421 19.972 637.557 20.316 637.557 20.748C637.557 21.332 637.329 21.792 636.873 22.128C636.417 22.456 635.809 22.62 635.049 22.62ZM641.39 22.62C640.87 22.62 640.434 22.532 640.082 22.356C639.738 22.18 639.482 21.924 639.314 21.588C639.146 21.244 639.062 20.82 639.062 20.316V17.76H638.438C638.246 17.76 638.098 17.712 637.994 17.616C637.89 17.512 637.838 17.372 637.838 17.196C637.838 17.012 637.89 16.872 637.994 16.776C638.098 16.68 638.246 16.632 638.438 16.632H639.062V15.54C639.062 15.292 639.126 15.104 639.254 14.976C639.39 14.848 639.578 14.784 639.818 14.784C640.058 14.784 640.242 14.848 640.37 14.976C640.498 15.104 640.562 15.292 640.562 15.54V16.632H641.834C642.026 16.632 642.174 16.68 642.278 16.776C642.382 16.872 642.434 17.012 642.434 17.196C642.434 17.372 642.382 17.512 642.278 17.616C642.174 17.712 642.026 17.76 641.834 17.76H640.562V20.232C640.562 20.616 640.646 20.904 640.814 21.096C640.982 21.288 641.254 21.384 641.63 21.384C641.766 21.384 641.886 21.372 641.99 21.348C642.094 21.324 642.186 21.308 642.266 21.3C642.362 21.292 642.442 21.324 642.506 21.396C642.57 21.46 642.602 21.596 642.602 21.804C642.602 21.964 642.574 22.108 642.518 22.236C642.47 22.356 642.378 22.44 642.242 22.488C642.138 22.52 642.002 22.548 641.834 22.572C641.666 22.604 641.518 22.62 641.39 22.62Z" fill="#494369"/>
</g>
<path d="M570.5 5.5C570.5 4.11929 571.619 3 573 3H687C688.381 3 689.5 4.11929 689.5 5.5V31.5C689.5 32.8807 688.381 34 687 34H573C571.619 34 570.5 32.8807 570.5 31.5V5.5Z" stroke="#EBEBF0" stroke-opacity="0.5"/>
<path d="M712 5.5C712 3.84315 713.343 2.5 715 2.5H829C830.657 2.5 832 3.84315 832 5.5V31.5C832 33.1569 830.657 34.5 829 34.5H715C713.343 34.5 712 33.1569 712 31.5V5.5Z" fill="white"/>
<path d="M747.625 21.596C747.433 21.596 747.277 21.552 747.157 21.464C747.045 21.376 746.977 21.26 746.953 21.116C746.929 20.964 746.957 20.796 747.037 20.612L750.205 13.592C750.309 13.36 750.433 13.196 750.577 13.1C750.729 12.996 750.901 12.944 751.093 12.944C751.277 12.944 751.441 12.996 751.585 13.1C751.737 13.196 751.865 13.36 751.969 13.592L755.149 20.612C755.237 20.796 755.269 20.964 755.245 21.116C755.221 21.268 755.153 21.388 755.041 21.476C754.929 21.556 754.781 21.596 754.597 21.596C754.373 21.596 754.197 21.544 754.069 21.44C753.949 21.328 753.841 21.16 753.745 20.936L752.965 19.124L753.613 19.544H748.549L749.197 19.124L748.429 20.936C748.325 21.168 748.217 21.336 748.105 21.44C747.993 21.544 747.833 21.596 747.625 21.596ZM751.069 14.708L749.389 18.704L749.077 18.32H753.085L752.785 18.704L751.093 14.708H751.069ZM758.524 21.62C758.012 21.62 757.56 21.496 757.168 21.248C756.784 21 756.484 20.648 756.268 20.192C756.052 19.728 755.944 19.184 755.944 18.56C755.944 17.928 756.052 17.388 756.268 16.94C756.484 16.484 756.784 16.132 757.168 15.884C757.56 15.636 758.012 15.512 758.524 15.512C759.012 15.512 759.436 15.632 759.796 15.872C760.164 16.112 760.412 16.428 760.54 16.82H760.408V13.7C760.408 13.452 760.472 13.264 760.6 13.136C760.728 13.008 760.912 12.944 761.152 12.944C761.392 12.944 761.576 13.008 761.704 13.136C761.84 13.264 761.908 13.452 761.908 13.7V20.828C761.908 21.076 761.844 21.268 761.716 21.404C761.588 21.532 761.404 21.596 761.164 21.596C760.924 21.596 760.74 21.532 760.612 21.404C760.484 21.268 760.42 21.076 760.42 20.828V19.892L760.552 20.252C760.432 20.668 760.188 21 759.82 21.248C759.452 21.496 759.02 21.62 758.524 21.62ZM758.944 20.48C759.24 20.48 759.5 20.408 759.724 20.264C759.948 20.12 760.12 19.908 760.24 19.628C760.368 19.34 760.432 18.984 760.432 18.56C760.432 17.92 760.296 17.444 760.024 17.132C759.752 16.812 759.392 16.652 758.944 16.652C758.648 16.652 758.388 16.724 758.164 16.868C757.94 17.004 757.764 17.216 757.636 17.504C757.516 17.784 757.456 18.136 757.456 18.56C757.456 19.192 757.592 19.672 757.864 20C758.136 20.32 758.496 20.48 758.944 20.48ZM765.72 21.62C765.208 21.62 764.756 21.496 764.364 21.248C763.98 21 763.68 20.648 763.464 20.192C763.248 19.728 763.14 19.184 763.14 18.56C763.14 17.928 763.248 17.388 763.464 16.94C763.68 16.484 763.98 16.132 764.364 15.884C764.756 15.636 765.208 15.512 765.72 15.512C766.208 15.512 766.632 15.632 766.992 15.872C767.36 16.112 767.608 16.428 767.736 16.82H767.604V13.7C767.604 13.452 767.668 13.264 767.796 13.136C767.924 13.008 768.108 12.944 768.348 12.944C768.588 12.944 768.772 13.008 768.9 13.136C769.036 13.264 769.104 13.452 769.104 13.7V20.828C769.104 21.076 769.04 21.268 768.912 21.404C768.784 21.532 768.6 21.596 768.36 21.596C768.12 21.596 767.936 21.532 767.808 21.404C767.68 21.268 767.616 21.076 767.616 20.828V19.892L767.748 20.252C767.628 20.668 767.384 21 767.016 21.248C766.648 21.496 766.216 21.62 765.72 21.62ZM766.14 20.48C766.436 20.48 766.696 20.408 766.92 20.264C767.144 20.12 767.316 19.908 767.436 19.628C767.564 19.34 767.628 18.984 767.628 18.56C767.628 17.92 767.492 17.444 767.22 17.132C766.948 16.812 766.588 16.652 766.14 16.652C765.844 16.652 765.584 16.724 765.36 16.868C765.136 17.004 764.96 17.216 764.832 17.504C764.712 17.784 764.652 18.136 764.652 18.56C764.652 19.192 764.788 19.672 765.06 20C765.332 20.32 765.692 20.48 766.14 20.48ZM771.211 18.884C771.035 18.884 770.887 18.828 770.767 18.716C770.655 18.596 770.599 18.452 770.599 18.284C770.599 18.108 770.655 17.964 770.767 17.852C770.887 17.74 771.035 17.684 771.211 17.684H773.767C773.935 17.684 774.075 17.74 774.187 17.852C774.307 17.964 774.367 18.108 774.367 18.284C774.367 18.452 774.307 18.596 774.187 18.716C774.075 18.828 773.935 18.884 773.767 18.884H771.211ZM779.798 21.62C778.982 21.62 778.266 21.44 777.65 21.08C777.042 20.72 776.57 20.216 776.234 19.568C775.898 18.912 775.73 18.144 775.73 17.264C775.73 16.6 775.826 16.004 776.018 15.476C776.21 14.94 776.482 14.484 776.834 14.108C777.194 13.724 777.622 13.432 778.118 13.232C778.622 13.024 779.182 12.92 779.798 12.92C780.622 12.92 781.338 13.1 781.946 13.46C782.554 13.812 783.026 14.312 783.362 14.96C783.698 15.608 783.866 16.372 783.866 17.252C783.866 17.916 783.77 18.516 783.578 19.052C783.386 19.588 783.11 20.048 782.75 20.432C782.398 20.816 781.97 21.112 781.466 21.32C780.97 21.52 780.414 21.62 779.798 21.62ZM779.798 20.3C780.318 20.3 780.758 20.18 781.118 19.94C781.486 19.7 781.766 19.352 781.958 18.896C782.158 18.44 782.258 17.896 782.258 17.264C782.258 16.304 782.042 15.56 781.61 15.032C781.186 14.504 780.582 14.24 779.798 14.24C779.286 14.24 778.846 14.36 778.478 14.6C778.11 14.832 777.826 15.176 777.626 15.632C777.434 16.08 777.338 16.624 777.338 17.264C777.338 18.216 777.554 18.96 777.986 19.496C778.418 20.032 779.022 20.3 779.798 20.3ZM786.028 21.596C785.788 21.596 785.604 21.532 785.476 21.404C785.348 21.268 785.284 21.076 785.284 20.828V16.292C785.284 16.044 785.348 15.856 785.476 15.728C785.604 15.6 785.784 15.536 786.016 15.536C786.248 15.536 786.428 15.6 786.556 15.728C786.684 15.856 786.748 16.044 786.748 16.292V17.108L786.616 16.808C786.792 16.384 787.064 16.064 787.432 15.848C787.808 15.624 788.232 15.512 788.704 15.512C789.176 15.512 789.564 15.6 789.868 15.776C790.172 15.952 790.4 16.22 790.552 16.58C790.704 16.932 790.78 17.38 790.78 17.924V20.828C790.78 21.076 790.716 21.268 790.588 21.404C790.46 21.532 790.276 21.596 790.036 21.596C789.796 21.596 789.608 21.532 789.472 21.404C789.344 21.268 789.28 21.076 789.28 20.828V17.996C789.28 17.54 789.192 17.208 789.016 17C788.848 16.792 788.584 16.688 788.224 16.688C787.784 16.688 787.432 16.828 787.168 17.108C786.912 17.38 786.784 17.744 786.784 18.2V20.828C786.784 21.34 786.532 21.596 786.028 21.596ZM794.451 21.62C794.107 21.62 793.743 21.584 793.359 21.512C792.975 21.44 792.631 21.316 792.327 21.14C792.199 21.06 792.107 20.968 792.051 20.864C792.003 20.752 791.983 20.644 791.991 20.54C792.007 20.428 792.047 20.332 792.111 20.252C792.183 20.172 792.271 20.12 792.375 20.096C792.487 20.072 792.607 20.092 792.735 20.156C793.055 20.308 793.355 20.416 793.635 20.48C793.915 20.536 794.191 20.564 794.463 20.564C794.847 20.564 795.131 20.5 795.315 20.372C795.507 20.236 795.603 20.06 795.603 19.844C795.603 19.66 795.539 19.52 795.411 19.424C795.291 19.32 795.107 19.244 794.859 19.196L793.659 18.968C793.163 18.872 792.783 18.692 792.519 18.428C792.263 18.156 792.135 17.808 792.135 17.384C792.135 17 792.239 16.668 792.447 16.388C792.663 16.108 792.959 15.892 793.335 15.74C793.711 15.588 794.143 15.512 794.631 15.512C794.983 15.512 795.311 15.552 795.615 15.632C795.927 15.704 796.227 15.82 796.515 15.98C796.635 16.044 796.715 16.128 796.755 16.232C796.803 16.336 796.815 16.444 796.791 16.556C796.767 16.66 796.719 16.756 796.647 16.844C796.575 16.924 796.483 16.976 796.371 17C796.267 17.016 796.147 16.992 796.011 16.928C795.763 16.8 795.523 16.708 795.291 16.652C795.067 16.596 794.851 16.568 794.643 16.568C794.251 16.568 793.959 16.636 793.767 16.772C793.583 16.908 793.491 17.088 793.491 17.312C793.491 17.48 793.547 17.62 793.659 17.732C793.771 17.844 793.943 17.92 794.175 17.96L795.375 18.188C795.895 18.284 796.287 18.46 796.551 18.716C796.823 18.972 796.959 19.316 796.959 19.748C796.959 20.332 796.731 20.792 796.275 21.128C795.819 21.456 795.211 21.62 794.451 21.62Z" fill="#494369"/>
<path d="M712.5 5.5C712.5 4.11929 713.619 3 715 3H829C830.381 3 831.5 4.11929 831.5 5.5V31.5C831.5 32.8807 830.381 34 829 34H715C713.619 34 712.5 32.8807 712.5 31.5V5.5Z" stroke="#EBEBF0" stroke-opacity="0.5"/>
<g clip-path="url(#clip5_2731_30627)">
<path d="M854 5.5C854 3.84315 855.343 2.5 857 2.5H971C972.657 2.5 974 3.84315 974 5.5V31.5C974 33.1569 972.657 34.5 971 34.5H857C855.343 34.5 854 33.1569 854 31.5V5.5Z" fill="white"/>
<path d="M885.199 22.596C884.975 22.596 884.803 22.532 884.683 22.404C884.563 22.276 884.503 22.1 884.503 21.876V14.664C884.503 14.432 884.567 14.256 884.695 14.136C884.823 14.008 884.999 13.944 885.223 13.944C885.423 13.944 885.579 13.984 885.691 14.064C885.811 14.136 885.919 14.264 886.015 14.448L888.979 19.932H888.595L891.559 14.448C891.655 14.264 891.759 14.136 891.871 14.064C891.983 13.984 892.139 13.944 892.339 13.944C892.563 13.944 892.735 14.008 892.855 14.136C892.975 14.256 893.035 14.432 893.035 14.664V21.876C893.035 22.1 892.975 22.276 892.855 22.404C892.743 22.532 892.571 22.596 892.339 22.596C892.115 22.596 891.943 22.532 891.823 22.404C891.703 22.276 891.643 22.1 891.643 21.876V16.32H891.907L889.387 20.916C889.307 21.052 889.223 21.152 889.135 21.216C889.047 21.28 888.927 21.312 888.775 21.312C888.623 21.312 888.499 21.28 888.403 21.216C888.307 21.144 888.223 21.044 888.151 20.916L885.607 16.308H885.895V21.876C885.895 22.1 885.835 22.276 885.715 22.404C885.603 22.532 885.431 22.596 885.199 22.596ZM897.429 22.62C896.821 22.62 896.293 22.496 895.845 22.248C895.397 22 895.049 21.648 894.801 21.192C894.553 20.728 894.429 20.184 894.429 19.56C894.429 19.088 894.497 18.668 894.633 18.3C894.777 17.924 894.981 17.604 895.245 17.34C895.509 17.068 895.825 16.864 896.193 16.728C896.561 16.584 896.973 16.512 897.429 16.512C898.037 16.512 898.565 16.636 899.013 16.884C899.461 17.132 899.809 17.484 900.057 17.94C900.305 18.396 900.429 18.936 900.429 19.56C900.429 20.032 900.357 20.456 900.213 20.832C900.077 21.208 899.877 21.532 899.613 21.804C899.349 22.068 899.033 22.272 898.665 22.416C898.297 22.552 897.885 22.62 897.429 22.62ZM897.429 21.48C897.725 21.48 897.985 21.408 898.209 21.264C898.433 21.12 898.605 20.908 898.725 20.628C898.853 20.34 898.917 19.984 898.917 19.56C898.917 18.92 898.781 18.444 898.509 18.132C898.237 17.812 897.877 17.652 897.429 17.652C897.133 17.652 896.873 17.724 896.649 17.868C896.425 18.004 896.249 18.216 896.121 18.504C896.001 18.784 895.941 19.136 895.941 19.56C895.941 20.192 896.077 20.672 896.349 21C896.621 21.32 896.981 21.48 897.429 21.48ZM902.411 22.596C902.171 22.596 901.987 22.532 901.859 22.404C901.731 22.268 901.667 22.076 901.667 21.828V17.292C901.667 17.044 901.731 16.856 901.859 16.728C901.987 16.6 902.167 16.536 902.399 16.536C902.631 16.536 902.811 16.6 902.939 16.728C903.067 16.856 903.131 17.044 903.131 17.292V18.108L902.999 17.808C903.175 17.384 903.447 17.064 903.815 16.848C904.191 16.624 904.615 16.512 905.087 16.512C905.559 16.512 905.947 16.6 906.251 16.776C906.555 16.952 906.783 17.22 906.935 17.58C907.087 17.932 907.163 18.38 907.163 18.924V21.828C907.163 22.076 907.099 22.268 906.971 22.404C906.843 22.532 906.659 22.596 906.419 22.596C906.179 22.596 905.991 22.532 905.855 22.404C905.727 22.268 905.663 22.076 905.663 21.828V18.996C905.663 18.54 905.575 18.208 905.399 18C905.231 17.792 904.967 17.688 904.607 17.688C904.167 17.688 903.815 17.828 903.551 18.108C903.295 18.38 903.167 18.744 903.167 19.2V21.828C903.167 22.34 902.915 22.596 902.411 22.596ZM909.43 22.584C909.19 22.584 909.006 22.512 908.878 22.368C908.75 22.224 908.686 22.024 908.686 21.768V17.364C908.686 17.1 908.75 16.9 908.878 16.764C909.006 16.62 909.19 16.548 909.43 16.548C909.67 16.548 909.854 16.62 909.982 16.764C910.118 16.9 910.186 17.1 910.186 17.364V21.768C910.186 22.024 910.122 22.224 909.994 22.368C909.866 22.512 909.678 22.584 909.43 22.584ZM909.43 15.432C909.15 15.432 908.93 15.364 908.77 15.228C908.618 15.084 908.542 14.888 908.542 14.64C908.542 14.384 908.618 14.188 908.77 14.052C908.93 13.916 909.15 13.848 909.43 13.848C909.718 13.848 909.938 13.916 910.09 14.052C910.242 14.188 910.318 14.384 910.318 14.64C910.318 14.888 910.242 15.084 910.09 15.228C909.938 15.364 909.718 15.432 909.43 15.432ZM914.433 22.62C913.913 22.62 913.477 22.532 913.125 22.356C912.781 22.18 912.525 21.924 912.357 21.588C912.189 21.244 912.105 20.82 912.105 20.316V17.76H911.481C911.289 17.76 911.141 17.712 911.037 17.616C910.933 17.512 910.881 17.372 910.881 17.196C910.881 17.012 910.933 16.872 911.037 16.776C911.141 16.68 911.289 16.632 911.481 16.632H912.105V15.54C912.105 15.292 912.169 15.104 912.297 14.976C912.433 14.848 912.621 14.784 912.861 14.784C913.101 14.784 913.285 14.848 913.413 14.976C913.541 15.104 913.605 15.292 913.605 15.54V16.632H914.877C915.069 16.632 915.217 16.68 915.321 16.776C915.425 16.872 915.477 17.012 915.477 17.196C915.477 17.372 915.425 17.512 915.321 17.616C915.217 17.712 915.069 17.76 914.877 17.76H913.605V20.232C913.605 20.616 913.689 20.904 913.857 21.096C914.025 21.288 914.297 21.384 914.673 21.384C914.809 21.384 914.929 21.372 915.033 21.348C915.137 21.324 915.229 21.308 915.309 21.3C915.405 21.292 915.485 21.324 915.549 21.396C915.613 21.46 915.645 21.596 915.645 21.804C915.645 21.964 915.617 22.108 915.561 22.236C915.513 22.356 915.421 22.44 915.285 22.488C915.181 22.52 915.045 22.548 914.877 22.572C914.709 22.604 914.561 22.62 914.433 22.62ZM918.968 22.62C918.36 22.62 917.832 22.496 917.384 22.248C916.936 22 916.588 21.648 916.34 21.192C916.092 20.728 915.968 20.184 915.968 19.56C915.968 19.088 916.036 18.668 916.172 18.3C916.316 17.924 916.52 17.604 916.784 17.34C917.048 17.068 917.364 16.864 917.732 16.728C918.1 16.584 918.512 16.512 918.968 16.512C919.576 16.512 920.104 16.636 920.552 16.884C921 17.132 921.348 17.484 921.596 17.94C921.844 18.396 921.968 18.936 921.968 19.56C921.968 20.032 921.896 20.456 921.752 20.832C921.616 21.208 921.416 21.532 921.152 21.804C920.888 22.068 920.572 22.272 920.204 22.416C919.836 22.552 919.424 22.62 918.968 22.62ZM918.968 21.48C919.264 21.48 919.524 21.408 919.748 21.264C919.972 21.12 920.144 20.908 920.264 20.628C920.392 20.34 920.456 19.984 920.456 19.56C920.456 18.92 920.32 18.444 920.048 18.132C919.776 17.812 919.416 17.652 918.968 17.652C918.672 17.652 918.412 17.724 918.188 17.868C917.964 18.004 917.788 18.216 917.66 18.504C917.54 18.784 917.48 19.136 917.48 19.56C917.48 20.192 917.616 20.672 917.888 21C918.16 21.32 918.52 21.48 918.968 21.48ZM923.974 22.596C923.726 22.596 923.534 22.532 923.398 22.404C923.27 22.268 923.206 22.076 923.206 21.828V17.292C923.206 17.044 923.27 16.856 923.398 16.728C923.526 16.6 923.706 16.536 923.938 16.536C924.17 16.536 924.35 16.6 924.478 16.728C924.606 16.856 924.67 17.044 924.67 17.292V18.048H924.55C924.662 17.568 924.882 17.204 925.21 16.956C925.538 16.708 925.974 16.56 926.518 16.512C926.686 16.496 926.818 16.54 926.914 16.644C927.018 16.74 927.078 16.892 927.094 17.1C927.11 17.3 927.062 17.464 926.95 17.592C926.846 17.712 926.686 17.784 926.47 17.808L926.206 17.832C925.718 17.88 925.35 18.032 925.102 18.288C924.854 18.536 924.73 18.888 924.73 19.344V21.828C924.73 22.076 924.666 22.268 924.538 22.404C924.41 22.532 924.222 22.596 923.974 22.596ZM928.649 22.584C928.409 22.584 928.225 22.512 928.097 22.368C927.969 22.224 927.905 22.024 927.905 21.768V17.364C927.905 17.1 927.969 16.9 928.097 16.764C928.225 16.62 928.409 16.548 928.649 16.548C928.889 16.548 929.073 16.62 929.201 16.764C929.337 16.9 929.405 17.1 929.405 17.364V21.768C929.405 22.024 929.341 22.224 929.213 22.368C929.085 22.512 928.897 22.584 928.649 22.584ZM928.649 15.432C928.369 15.432 928.149 15.364 927.989 15.228C927.837 15.084 927.761 14.888 927.761 14.64C927.761 14.384 927.837 14.188 927.989 14.052C928.149 13.916 928.369 13.848 928.649 13.848C928.937 13.848 929.157 13.916 929.309 14.052C929.461 14.188 929.537 14.384 929.537 14.64C929.537 14.888 929.461 15.084 929.309 15.228C929.157 15.364 928.937 15.432 928.649 15.432ZM931.708 22.596C931.468 22.596 931.284 22.532 931.156 22.404C931.028 22.268 930.964 22.076 930.964 21.828V17.292C930.964 17.044 931.028 16.856 931.156 16.728C931.284 16.6 931.464 16.536 931.696 16.536C931.928 16.536 932.108 16.6 932.236 16.728C932.364 16.856 932.428 17.044 932.428 17.292V18.108L932.296 17.808C932.472 17.384 932.744 17.064 933.112 16.848C933.488 16.624 933.912 16.512 934.384 16.512C934.856 16.512 935.244 16.6 935.548 16.776C935.852 16.952 936.08 17.22 936.232 17.58C936.384 17.932 936.46 18.38 936.46 18.924V21.828C936.46 22.076 936.396 22.268 936.268 22.404C936.14 22.532 935.956 22.596 935.716 22.596C935.476 22.596 935.288 22.532 935.152 22.404C935.024 22.268 934.96 22.076 934.96 21.828V18.996C934.96 18.54 934.872 18.208 934.696 18C934.528 17.792 934.264 17.688 933.904 17.688C933.464 17.688 933.112 17.828 932.848 18.108C932.592 18.38 932.464 18.744 932.464 19.2V21.828C932.464 22.34 932.212 22.596 931.708 22.596ZM940.719 24.78C940.287 24.78 939.867 24.74 939.459 24.66C939.059 24.58 938.695 24.456 938.367 24.288C938.215 24.208 938.111 24.112 938.055 24C938.007 23.888 937.991 23.772 938.007 23.652C938.031 23.54 938.079 23.44 938.151 23.352C938.231 23.264 938.327 23.204 938.439 23.172C938.551 23.14 938.667 23.156 938.787 23.22C939.139 23.396 939.471 23.508 939.783 23.556C940.103 23.612 940.375 23.64 940.599 23.64C941.135 23.64 941.535 23.508 941.799 23.244C942.071 22.988 942.207 22.604 942.207 22.092V21.012H942.315C942.195 21.42 941.943 21.748 941.559 21.996C941.183 22.236 940.755 22.356 940.275 22.356C939.747 22.356 939.287 22.236 938.895 21.996C938.503 21.748 938.199 21.404 937.983 20.964C937.767 20.524 937.659 20.012 937.659 19.428C937.659 18.988 937.719 18.592 937.839 18.24C937.967 17.88 938.143 17.572 938.367 17.316C938.599 17.06 938.875 16.864 939.195 16.728C939.523 16.584 939.883 16.512 940.275 16.512C940.771 16.512 941.203 16.636 941.571 16.884C941.947 17.124 942.191 17.444 942.303 17.844L942.183 18.144V17.292C942.183 17.044 942.247 16.856 942.375 16.728C942.511 16.6 942.695 16.536 942.927 16.536C943.167 16.536 943.351 16.6 943.479 16.728C943.607 16.856 943.671 17.044 943.671 17.292V21.912C943.671 22.864 943.419 23.58 942.915 24.06C942.411 24.54 941.679 24.78 940.719 24.78ZM940.683 21.216C940.995 21.216 941.263 21.144 941.487 21C941.711 20.856 941.883 20.652 942.003 20.388C942.131 20.116 942.195 19.796 942.195 19.428C942.195 18.876 942.059 18.444 941.787 18.132C941.515 17.812 941.147 17.652 940.683 17.652C940.371 17.652 940.103 17.724 939.879 17.868C939.655 18.012 939.479 18.216 939.351 18.48C939.231 18.744 939.171 19.06 939.171 19.428C939.171 19.98 939.307 20.416 939.579 20.736C939.851 21.056 940.219 21.216 940.683 21.216Z" fill="#494369"/>
</g>
<path d="M854.5 5.5C854.5 4.11929 855.619 3 857 3H971C972.381 3 973.5 4.11929 973.5 5.5V31.5C973.5 32.8807 972.381 34 971 34H857C855.619 34 854.5 32.8807 854.5 31.5V5.5Z" stroke="#EBEBF0" stroke-opacity="0.5"/>
<g clip-path="url(#clip6_2731_30627)">
<path d="M996 5.5C996 3.84315 997.343 2.5 999 2.5H1113C1114.66 2.5 1116 3.84315 1116 5.5V31.5C1116 33.1569 1114.66 34.5 1113 34.5H999C997.343 34.5 996 33.1569 996 31.5V5.5Z" fill="white"/>
<path d="M1026.62 22.62C1025.74 22.62 1024.98 22.444 1024.35 22.092C1023.73 21.732 1023.25 21.228 1022.91 20.58C1022.57 19.924 1022.41 19.152 1022.41 18.264C1022.41 17.6 1022.5 17.004 1022.69 16.476C1022.89 15.94 1023.16 15.484 1023.52 15.108C1023.88 14.724 1024.32 14.432 1024.84 14.232C1025.37 14.024 1025.96 13.92 1026.62 13.92C1027.06 13.92 1027.49 13.976 1027.91 14.088C1028.34 14.2 1028.71 14.36 1029.03 14.568C1029.2 14.672 1029.31 14.8 1029.37 14.952C1029.42 15.096 1029.43 15.24 1029.4 15.384C1029.37 15.52 1029.3 15.636 1029.2 15.732C1029.1 15.828 1028.98 15.884 1028.83 15.9C1028.68 15.908 1028.52 15.856 1028.35 15.744C1028.1 15.584 1027.83 15.468 1027.54 15.396C1027.25 15.324 1026.96 15.288 1026.67 15.288C1026.1 15.288 1025.62 15.404 1025.23 15.636C1024.83 15.868 1024.54 16.204 1024.34 16.644C1024.14 17.084 1024.04 17.624 1024.04 18.264C1024.04 18.896 1024.14 19.436 1024.34 19.884C1024.54 20.332 1024.83 20.672 1025.23 20.904C1025.62 21.136 1026.1 21.252 1026.67 21.252C1026.97 21.252 1027.27 21.216 1027.57 21.144C1027.86 21.064 1028.14 20.944 1028.41 20.784C1028.58 20.68 1028.74 20.636 1028.87 20.652C1029.02 20.66 1029.14 20.708 1029.23 20.796C1029.33 20.884 1029.39 20.996 1029.43 21.132C1029.46 21.26 1029.45 21.396 1029.4 21.54C1029.35 21.676 1029.26 21.796 1029.11 21.9C1028.79 22.132 1028.41 22.312 1027.96 22.44C1027.52 22.56 1027.07 22.62 1026.62 22.62ZM1032.95 22.62C1032.34 22.62 1031.81 22.496 1031.36 22.248C1030.92 22 1030.57 21.648 1030.32 21.192C1030.07 20.728 1029.95 20.184 1029.95 19.56C1029.95 19.088 1030.02 18.668 1030.15 18.3C1030.3 17.924 1030.5 17.604 1030.76 17.34C1031.03 17.068 1031.34 16.864 1031.71 16.728C1032.08 16.584 1032.49 16.512 1032.95 16.512C1033.56 16.512 1034.08 16.636 1034.53 16.884C1034.98 17.132 1035.33 17.484 1035.58 17.94C1035.82 18.396 1035.95 18.936 1035.95 19.56C1035.95 20.032 1035.88 20.456 1035.73 20.832C1035.6 21.208 1035.4 21.532 1035.13 21.804C1034.87 22.068 1034.55 22.272 1034.18 22.416C1033.82 22.552 1033.4 22.62 1032.95 22.62ZM1032.95 21.48C1033.24 21.48 1033.5 21.408 1033.73 21.264C1033.95 21.12 1034.12 20.908 1034.24 20.628C1034.37 20.34 1034.44 19.984 1034.44 19.56C1034.44 18.92 1034.3 18.444 1034.03 18.132C1033.76 17.812 1033.4 17.652 1032.95 17.652C1032.65 17.652 1032.39 17.724 1032.17 17.868C1031.94 18.004 1031.77 18.216 1031.64 18.504C1031.52 18.784 1031.46 19.136 1031.46 19.56C1031.46 20.192 1031.6 20.672 1031.87 21C1032.14 21.32 1032.5 21.48 1032.95 21.48ZM1037.93 22.596C1037.69 22.596 1037.51 22.532 1037.38 22.404C1037.25 22.268 1037.19 22.076 1037.19 21.828V17.292C1037.19 17.044 1037.25 16.856 1037.38 16.728C1037.51 16.6 1037.69 16.536 1037.92 16.536C1038.15 16.536 1038.33 16.6 1038.46 16.728C1038.59 16.856 1038.65 17.044 1038.65 17.292V18.108L1038.52 17.808C1038.69 17.384 1038.97 17.064 1039.33 16.848C1039.71 16.624 1040.13 16.512 1040.61 16.512C1041.08 16.512 1041.47 16.6 1041.77 16.776C1042.07 16.952 1042.3 17.22 1042.45 17.58C1042.61 17.932 1042.68 18.38 1042.68 18.924V21.828C1042.68 22.076 1042.62 22.268 1042.49 22.404C1042.36 22.532 1042.18 22.596 1041.94 22.596C1041.7 22.596 1041.51 22.532 1041.37 22.404C1041.25 22.268 1041.18 22.076 1041.18 21.828V18.996C1041.18 18.54 1041.09 18.208 1040.92 18C1040.75 17.792 1040.49 17.688 1040.13 17.688C1039.69 17.688 1039.33 17.828 1039.07 18.108C1038.81 18.38 1038.69 18.744 1038.69 19.2V21.828C1038.69 22.34 1038.43 22.596 1037.93 22.596ZM1044.95 22.596C1044.71 22.596 1044.53 22.532 1044.4 22.404C1044.27 22.268 1044.21 22.076 1044.21 21.828V17.292C1044.21 17.044 1044.27 16.856 1044.4 16.728C1044.53 16.6 1044.71 16.536 1044.94 16.536C1045.17 16.536 1045.35 16.6 1045.48 16.728C1045.61 16.856 1045.67 17.044 1045.67 17.292V18.108L1045.54 17.808C1045.71 17.384 1045.99 17.064 1046.35 16.848C1046.73 16.624 1047.15 16.512 1047.63 16.512C1048.1 16.512 1048.49 16.6 1048.79 16.776C1049.09 16.952 1049.32 17.22 1049.47 17.58C1049.63 17.932 1049.7 18.38 1049.7 18.924V21.828C1049.7 22.076 1049.64 22.268 1049.51 22.404C1049.38 22.532 1049.2 22.596 1048.96 22.596C1048.72 22.596 1048.53 22.532 1048.39 22.404C1048.27 22.268 1048.2 22.076 1048.2 21.828V18.996C1048.2 18.54 1048.11 18.208 1047.94 18C1047.77 17.792 1047.51 17.688 1047.15 17.688C1046.71 17.688 1046.35 17.828 1046.09 18.108C1045.83 18.38 1045.71 18.744 1045.71 19.2V21.828C1045.71 22.34 1045.45 22.596 1044.95 22.596ZM1054.12 22.62C1053.45 22.62 1052.88 22.496 1052.4 22.248C1051.92 22 1051.55 21.648 1051.29 21.192C1051.03 20.736 1050.9 20.196 1050.9 19.572C1050.9 18.964 1051.03 18.432 1051.27 17.976C1051.53 17.52 1051.88 17.164 1052.32 16.908C1052.77 16.644 1053.27 16.512 1053.84 16.512C1054.26 16.512 1054.63 16.58 1054.96 16.716C1055.29 16.852 1055.58 17.048 1055.81 17.304C1056.05 17.56 1056.23 17.872 1056.35 18.24C1056.48 18.6 1056.54 19.008 1056.54 19.464C1056.54 19.608 1056.49 19.72 1056.39 19.8C1056.29 19.872 1056.15 19.908 1055.97 19.908H1052.11V19.044H1055.49L1055.29 19.224C1055.29 18.856 1055.24 18.548 1055.13 18.3C1055.02 18.052 1054.87 17.864 1054.66 17.736C1054.46 17.6 1054.21 17.532 1053.9 17.532C1053.57 17.532 1053.28 17.612 1053.04 17.772C1052.81 17.924 1052.63 18.144 1052.5 18.432C1052.38 18.712 1052.32 19.048 1052.32 19.44V19.524C1052.32 20.18 1052.47 20.672 1052.77 21C1053.09 21.32 1053.54 21.48 1054.14 21.48C1054.35 21.48 1054.58 21.456 1054.84 21.408C1055.1 21.352 1055.35 21.26 1055.58 21.132C1055.75 21.036 1055.9 20.996 1056.03 21.012C1056.15 21.02 1056.25 21.064 1056.33 21.144C1056.41 21.224 1056.45 21.324 1056.47 21.444C1056.49 21.556 1056.46 21.672 1056.4 21.792C1056.34 21.912 1056.24 22.016 1056.1 22.104C1055.82 22.28 1055.49 22.412 1055.13 22.5C1054.77 22.58 1054.43 22.62 1054.12 22.62ZM1060.44 22.62C1059.83 22.62 1059.29 22.496 1058.83 22.248C1058.38 21.992 1058.03 21.632 1057.78 21.168C1057.53 20.704 1057.41 20.16 1057.41 19.536C1057.41 19.064 1057.47 18.644 1057.61 18.276C1057.75 17.9 1057.96 17.584 1058.22 17.328C1058.49 17.064 1058.81 16.864 1059.18 16.728C1059.56 16.584 1059.98 16.512 1060.44 16.512C1060.71 16.512 1060.99 16.548 1061.29 16.62C1061.61 16.692 1061.9 16.812 1062.17 16.98C1062.3 17.06 1062.38 17.156 1062.42 17.268C1062.46 17.38 1062.47 17.496 1062.45 17.616C1062.42 17.728 1062.37 17.828 1062.29 17.916C1062.22 17.996 1062.13 18.048 1062.01 18.072C1061.9 18.088 1061.78 18.06 1061.64 17.988C1061.47 17.884 1061.29 17.808 1061.1 17.76C1060.92 17.704 1060.74 17.676 1060.57 17.676C1060.31 17.676 1060.08 17.72 1059.88 17.808C1059.68 17.888 1059.51 18.008 1059.36 18.168C1059.23 18.32 1059.12 18.512 1059.05 18.744C1058.98 18.976 1058.94 19.244 1058.94 19.548C1058.94 20.14 1059.08 20.608 1059.36 20.952C1059.65 21.288 1060.05 21.456 1060.57 21.456C1060.74 21.456 1060.91 21.432 1061.09 21.384C1061.27 21.336 1061.46 21.26 1061.64 21.156C1061.78 21.084 1061.9 21.06 1062 21.084C1062.11 21.108 1062.21 21.164 1062.28 21.252C1062.35 21.332 1062.39 21.432 1062.41 21.552C1062.43 21.664 1062.41 21.776 1062.36 21.888C1062.32 22 1062.24 22.092 1062.12 22.164C1061.86 22.324 1061.58 22.44 1061.28 22.512C1060.99 22.584 1060.71 22.62 1060.44 22.62ZM1066.1 22.62C1065.58 22.62 1065.14 22.532 1064.79 22.356C1064.45 22.18 1064.19 21.924 1064.02 21.588C1063.86 21.244 1063.77 20.82 1063.77 20.316V17.76H1063.15C1062.96 17.76 1062.81 17.712 1062.7 17.616C1062.6 17.512 1062.55 17.372 1062.55 17.196C1062.55 17.012 1062.6 16.872 1062.7 16.776C1062.81 16.68 1062.96 16.632 1063.15 16.632H1063.77V15.54C1063.77 15.292 1063.84 15.104 1063.96 14.976C1064.1 14.848 1064.29 14.784 1064.53 14.784C1064.77 14.784 1064.95 14.848 1065.08 14.976C1065.21 15.104 1065.27 15.292 1065.27 15.54V16.632H1066.54C1066.74 16.632 1066.88 16.68 1066.99 16.776C1067.09 16.872 1067.14 17.012 1067.14 17.196C1067.14 17.372 1067.09 17.512 1066.99 17.616C1066.88 17.712 1066.74 17.76 1066.54 17.76H1065.27V20.232C1065.27 20.616 1065.36 20.904 1065.52 21.096C1065.69 21.288 1065.96 21.384 1066.34 21.384C1066.48 21.384 1066.6 21.372 1066.7 21.348C1066.8 21.324 1066.9 21.308 1066.98 21.3C1067.07 21.292 1067.15 21.324 1067.22 21.396C1067.28 21.46 1067.31 21.596 1067.31 21.804C1067.31 21.964 1067.28 22.108 1067.23 22.236C1067.18 22.356 1067.09 22.44 1066.95 22.488C1066.85 22.52 1066.71 22.548 1066.54 22.572C1066.38 22.604 1066.23 22.62 1066.1 22.62ZM1068.91 22.584C1068.67 22.584 1068.49 22.512 1068.36 22.368C1068.23 22.224 1068.17 22.024 1068.17 21.768V17.364C1068.17 17.1 1068.23 16.9 1068.36 16.764C1068.49 16.62 1068.67 16.548 1068.91 16.548C1069.15 16.548 1069.34 16.62 1069.47 16.764C1069.6 16.9 1069.67 17.1 1069.67 17.364V21.768C1069.67 22.024 1069.61 22.224 1069.48 22.368C1069.35 22.512 1069.16 22.584 1068.91 22.584ZM1068.91 15.432C1068.63 15.432 1068.41 15.364 1068.25 15.228C1068.1 15.084 1068.03 14.888 1068.03 14.64C1068.03 14.384 1068.1 14.188 1068.25 14.052C1068.41 13.916 1068.63 13.848 1068.91 13.848C1069.2 13.848 1069.42 13.916 1069.57 14.052C1069.73 14.188 1069.8 14.384 1069.8 14.64C1069.8 14.888 1069.73 15.084 1069.57 15.228C1069.42 15.364 1069.2 15.432 1068.91 15.432ZM1073.91 22.62C1073.3 22.62 1072.77 22.496 1072.32 22.248C1071.87 22 1071.53 21.648 1071.28 21.192C1071.03 20.728 1070.91 20.184 1070.91 19.56C1070.91 19.088 1070.97 18.668 1071.11 18.3C1071.25 17.924 1071.46 17.604 1071.72 17.34C1071.99 17.068 1072.3 16.864 1072.67 16.728C1073.04 16.584 1073.45 16.512 1073.91 16.512C1074.51 16.512 1075.04 16.636 1075.49 16.884C1075.94 17.132 1076.29 17.484 1076.53 17.94C1076.78 18.396 1076.91 18.936 1076.91 19.56C1076.91 20.032 1076.83 20.456 1076.69 20.832C1076.55 21.208 1076.35 21.532 1076.09 21.804C1075.83 22.068 1075.51 22.272 1075.14 22.416C1074.77 22.552 1074.36 22.62 1073.91 22.62ZM1073.91 21.48C1074.2 21.48 1074.46 21.408 1074.69 21.264C1074.91 21.12 1075.08 20.908 1075.2 20.628C1075.33 20.34 1075.39 19.984 1075.39 19.56C1075.39 18.92 1075.26 18.444 1074.99 18.132C1074.71 17.812 1074.35 17.652 1073.91 17.652C1073.61 17.652 1073.35 17.724 1073.13 17.868C1072.9 18.004 1072.73 18.216 1072.6 18.504C1072.48 18.784 1072.42 19.136 1072.42 19.56C1072.42 20.192 1072.55 20.672 1072.83 21C1073.1 21.32 1073.46 21.48 1073.91 21.48ZM1078.89 22.596C1078.65 22.596 1078.46 22.532 1078.34 22.404C1078.21 22.268 1078.14 22.076 1078.14 21.828V17.292C1078.14 17.044 1078.21 16.856 1078.34 16.728C1078.46 16.6 1078.64 16.536 1078.88 16.536C1079.11 16.536 1079.29 16.6 1079.42 16.728C1079.54 16.856 1079.61 17.044 1079.61 17.292V18.108L1079.48 17.808C1079.65 17.384 1079.92 17.064 1080.29 16.848C1080.67 16.624 1081.09 16.512 1081.56 16.512C1082.04 16.512 1082.42 16.6 1082.73 16.776C1083.03 16.952 1083.26 17.22 1083.41 17.58C1083.56 17.932 1083.64 18.38 1083.64 18.924V21.828C1083.64 22.076 1083.58 22.268 1083.45 22.404C1083.32 22.532 1083.14 22.596 1082.9 22.596C1082.66 22.596 1082.47 22.532 1082.33 22.404C1082.2 22.268 1082.14 22.076 1082.14 21.828V18.996C1082.14 18.54 1082.05 18.208 1081.88 18C1081.71 17.792 1081.44 17.688 1081.08 17.688C1080.64 17.688 1080.29 17.828 1080.03 18.108C1079.77 18.38 1079.64 18.744 1079.64 19.2V21.828C1079.64 22.34 1079.39 22.596 1078.89 22.596ZM1087.31 22.62C1086.97 22.62 1086.6 22.584 1086.22 22.512C1085.83 22.44 1085.49 22.316 1085.19 22.14C1085.06 22.06 1084.97 21.968 1084.91 21.864C1084.86 21.752 1084.84 21.644 1084.85 21.54C1084.87 21.428 1084.91 21.332 1084.97 21.252C1085.04 21.172 1085.13 21.12 1085.23 21.096C1085.35 21.072 1085.47 21.092 1085.59 21.156C1085.91 21.308 1086.21 21.416 1086.49 21.48C1086.77 21.536 1087.05 21.564 1087.32 21.564C1087.71 21.564 1087.99 21.5 1088.17 21.372C1088.37 21.236 1088.46 21.06 1088.46 20.844C1088.46 20.66 1088.4 20.52 1088.27 20.424C1088.15 20.32 1087.97 20.244 1087.72 20.196L1086.52 19.968C1086.02 19.872 1085.64 19.692 1085.38 19.428C1085.12 19.156 1084.99 18.808 1084.99 18.384C1084.99 18 1085.1 17.668 1085.31 17.388C1085.52 17.108 1085.82 16.892 1086.19 16.74C1086.57 16.588 1087 16.512 1087.49 16.512C1087.84 16.512 1088.17 16.552 1088.47 16.632C1088.79 16.704 1089.09 16.82 1089.37 16.98C1089.49 17.044 1089.57 17.128 1089.61 17.232C1089.66 17.336 1089.67 17.444 1089.65 17.556C1089.63 17.66 1089.58 17.756 1089.51 17.844C1089.43 17.924 1089.34 17.976 1089.23 18C1089.13 18.016 1089.01 17.992 1088.87 17.928C1088.62 17.8 1088.38 17.708 1088.15 17.652C1087.93 17.596 1087.71 17.568 1087.5 17.568C1087.11 17.568 1086.82 17.636 1086.63 17.772C1086.44 17.908 1086.35 18.088 1086.35 18.312C1086.35 18.48 1086.41 18.62 1086.52 18.732C1086.63 18.844 1086.8 18.92 1087.03 18.96L1088.23 19.188C1088.75 19.284 1089.15 19.46 1089.41 19.716C1089.68 19.972 1089.82 20.316 1089.82 20.748C1089.82 21.332 1089.59 21.792 1089.13 22.128C1088.68 22.456 1088.07 22.62 1087.31 22.62Z" fill="#494369"/>
</g>
<path d="M996.5 5.5C996.5 4.11929 997.619 3 999 3H1113C1114.38 3 1115.5 4.11929 1115.5 5.5V31.5C1115.5 32.8807 1114.38 34 1113 34H999C997.619 34 996.5 32.8807 996.5 31.5V5.5Z" stroke="#EBEBF0" stroke-opacity="0.5"/>
</g>
<defs>
<clipPath id="clip0_2731_30627">
<rect width="1114" height="37" fill="white" transform="translate(2)"/>
</clipPath>
<clipPath id="clip1_2731_30627">
<rect width="120" height="37" fill="white" transform="translate(2)"/>
</clipPath>
<clipPath id="clip2_2731_30627">
<path d="M144 5.5C144 3.84315 145.343 2.5 147 2.5H261C262.657 2.5 264 3.84315 264 5.5V31.5C264 33.1569 262.657 34.5 261 34.5H147C145.343 34.5 144 33.1569 144 31.5V5.5Z" fill="white"/>
</clipPath>
<clipPath id="clip3_2731_30627">
<path d="M428 5.5C428 3.84315 429.343 2.5 431 2.5H545C546.657 2.5 548 3.84315 548 5.5V31.5C548 33.1569 546.657 34.5 545 34.5H431C429.343 34.5 428 33.1569 428 31.5V5.5Z" fill="white"/>
</clipPath>
<clipPath id="clip4_2731_30627">
<path d="M570 5.5C570 3.84315 571.343 2.5 573 2.5H687C688.657 2.5 690 3.84315 690 5.5V31.5C690 33.1569 688.657 34.5 687 34.5H573C571.343 34.5 570 33.1569 570 31.5V5.5Z" fill="white"/>
</clipPath>
<clipPath id="clip5_2731_30627">
<path d="M854 5.5C854 3.84315 855.343 2.5 857 2.5H971C972.657 2.5 974 3.84315 974 5.5V31.5C974 33.1569 972.657 34.5 971 34.5H857C855.343 34.5 854 33.1569 854 31.5V5.5Z" fill="white"/>
</clipPath>
<clipPath id="clip6_2731_30627">
<path d="M996 5.5C996 3.84315 997.343 2.5 999 2.5H1113C1114.66 2.5 1116 3.84315 1116 5.5V31.5C1116 33.1569 1114.66 34.5 1113 34.5H999C997.343 34.5 996 33.1569 996 31.5V5.5Z" fill="white"/>
</clipPath>
</defs>
</svg>
